<?xml version="1.0" standalone="no"?>
<!DOCTYPE svg PUBLIC "-//W3C//DTD SVG 1.1//EN" "http://www.w3.org/Graphics/SVG/1.1/DTD/svg11.dtd" >
<svg xmlns="http://www.w3.org/2000/svg" xmlns:xlink="http://www.w3.org/1999/xlink" version="1.1">
<metadata></metadata>
<defs>
<font id="libre_caslon_textregular" horiz-adv-x="1228" >
<font-face units-per-em="2048" ascent="1638" descent="-410" />
<missing-glyph horiz-adv-x="557" />
<glyph unicode="&#xfb00;" horiz-adv-x="1388" d="M47 1020l25 65h155q1 102 8 156.5t23 95.5q44 118 170.5 189t292.5 71q162 0 254 -63q58 76 152.5 121t197.5 45q111 0 187.5 -50t76.5 -124q0 -44 -28 -72.5t-72 -28.5q-79 0 -100 105q-11 58 -33 82t-70 24q-105 0 -151 -100q-43 -90 -43 -338v-113h264l-25 -65h-239 v-950l217 -31v-39h-566v39l154 31v950h-475v-950l217 -31v-39h-565v39l153 31v950h-180zM422 1085h475q0 155 6 244q-20 91 -87.5 145t-149.5 54q-63 0 -117.5 -33t-89.5 -100q-24 -45 -30.5 -99t-6.5 -211z" />
<glyph unicode="&#xfb01;" horiz-adv-x="1271" d="M47 1020l25 65h155q0 155 6.5 233t24.5 122q47 118 172.5 189t278.5 71q170 0 267 -50.5t97 -136.5q0 -53 -30.5 -85.5t-81.5 -32.5q-88 0 -130 125q-20 64 -48 85t-93 21q-83 0 -137.5 -32t-93.5 -101q-21 -36 -29 -99.5t-8 -195.5v-113h303l328 21h18v-1034l154 -31 v-41h-504v41l156 31v882l-152 66h-303v-950l217 -31v-39h-565v39l153 31v950h-180z" />
<glyph unicode="&#xfb02;" horiz-adv-x="1265" d="M47 1020l25 65h155q0 164 6 236t25 119q44 118 170.5 189t292.5 71q141 0 242.5 -32t101.5 -79v-1519l141 -31v-39h-473v39l144 31v950h-455v-950l217 -31v-39h-565v39l153 31v950h-180zM422 1085h455v367q0 76 -56.5 127t-136.5 51q-85 0 -137 -31.5t-88 -101.5 q-24 -45 -30.5 -97t-6.5 -202v-113z" />
<glyph unicode="&#xfb03;" horiz-adv-x="1941" d="M47 1020l25 65h155q1 102 8 156.5t23 95.5q44 118 170.5 189t292.5 71q167 0 260 -67q66 80 171.5 125t225.5 45q170 0 267.5 -50.5t97.5 -136.5q0 -53 -31 -85.5t-82 -32.5q-87 0 -129 125q-20 64 -48 85t-93 21q-83 0 -138 -32t-94 -101q-20 -35 -28 -98.5t-8 -196.5 v-113h303l327 21h19v-1034l153 -31v-41h-503v41l155 31v882l-151 66h-303v-950l217 -31v-39h-566v39l154 31v950h-475v-950l217 -31v-39h-565v39l153 31v950h-180zM422 1085h475q0 157 6 242q-17 95 -79.5 148t-159.5 53q-71 0 -120.5 -32t-84.5 -101q-24 -45 -30.5 -99 t-6.5 -211z" />
<glyph unicode="&#xfb04;" horiz-adv-x="1935" d="M47 1020l25 65h155q1 102 8 156.5t23 95.5q44 118 170.5 189t292.5 71q167 0 260 -67q64 79 172 124.5t238 45.5q141 0 242.5 -32t101.5 -79v-1519l141 -31v-39h-473v39l143 31v950h-454v-950l217 -31v-39h-566v39l154 31v950h-475v-950l217 -31v-39h-565v39l153 31v950 h-180zM422 1085h475q0 165 6 244q-19 96 -81 147.5t-158 51.5q-71 0 -120.5 -32t-84.5 -101q-24 -45 -30.5 -99t-6.5 -211zM1092 1085h454v359q0 80 -54.5 133t-137.5 53q-85 0 -137.5 -31.5t-88.5 -101.5q-24 -45 -30 -96.5t-6 -202.5v-113z" />
<glyph unicode="fb" horiz-adv-x="1923" d="M47 1020l25 65h155q0 164 6 236t25 119q44 118 170.5 189t292.5 71q141 0 242.5 -32t101.5 -79v-622q130 139 311 139q201 0 327 -144t126 -374q0 -259 -155.5 -433.5t-385.5 -174.5q-156 0 -282 94h-11l-86 -70h-32v1448q0 76 -56.5 127t-136.5 51q-85 0 -137 -31.5 t-88 -101.5q-24 -45 -30.5 -97t-6.5 -202v-113h317l-24 -65h-293v-950l217 -31v-39h-565v39l153 31v950h-180zM1065 307q0 -117 61 -187.5t162 -70.5q146 0 234 132t88 349t-85.5 341t-234.5 124q-140 0 -225 -106v-582z" />
<glyph unicode="ffb" horiz-adv-x="2592" d="M47 1020l25 65h155q1 102 8 156.5t23 95.5q44 118 170.5 189t292.5 71q167 0 260 -67q64 79 172 124.5t238 45.5q141 0 242.5 -32t101.5 -79v-622q130 139 311 139q201 0 327 -144t126 -374q0 -259 -155.5 -433.5t-385.5 -174.5q-157 0 -283 94h-10l-86 -70h-33v1016 h-454v-950l217 -31v-39h-566v39l154 31v950h-475v-950l217 -31v-39h-565v39l153 31v950h-180zM422 1085h475q0 165 6 244q-19 96 -81 147.5t-158 51.5q-71 0 -120.5 -32t-84.5 -101q-24 -45 -30.5 -99t-6.5 -211zM1092 1085h454v367q0 76 -56 127t-136 51 q-85 0 -137.5 -31.5t-88.5 -101.5q-24 -45 -30 -96.5t-6 -202.5v-113zM1735 307q0 -117 61 -187.5t162 -70.5q146 0 233.5 132t87.5 349t-85 341t-234 124q-140 0 -225 -106v-582z" />
<glyph unicode="ffh" horiz-adv-x="2607" d="M47 1020l25 65h155q1 102 8 156.5t23 95.5q44 118 170.5 189t292.5 71q167 0 260 -67q64 79 172 124.5t238 45.5q140 0 242 -32t102 -79v-653q94 82 200 126t209 44q82 0 145.5 -33t92.5 -90q17 -32 21.5 -85.5t4.5 -205.5v-622l154 -29v-41h-502v41l154 29v602 q0 164 -25 227q-40 94 -159 94q-171 0 -295 -133v-788l153 -31v-41h-497v41l155 31v1372q0 80 -54.5 133t-137.5 53q-85 0 -137.5 -31.5t-88.5 -101.5q-24 -45 -30 -96.5t-6 -202.5v-113h297l-25 -65h-272v-950l217 -31v-39h-566v39l154 31v950h-475v-950l217 -31v-39h-565 v39l153 31v950h-180zM422 1085h475q0 165 6 244q-19 96 -81 147.5t-158 51.5q-71 0 -120.5 -32t-84.5 -101q-24 -45 -30.5 -99t-6.5 -211z" />
<glyph unicode="ffj" horiz-adv-x="1916" d="M47 1020l25 65h155q1 102 8 156.5t23 95.5q44 118 170.5 189t292.5 71q167 0 260 -67q66 80 171.5 125t225.5 45q170 0 267.5 -50.5t97.5 -136.5q0 -53 -31 -85.5t-82 -32.5q-87 0 -129 125q-20 64 -48 85t-93 21q-83 0 -138 -32t-94 -101q-20 -35 -28 -98.5t-8 -196.5 v-113h303l327 99h19v-867q0 -300 -12 -401.5t-56 -183.5q-70 -129 -172 -196.5t-225 -67.5q-104 0 -164.5 44.5t-60.5 122.5q0 57 29.5 90t80.5 33q78 0 113 -94q22 -59 43 -79.5t59 -20.5q170 0 170 338v1093l-151 25h-303v-950l217 -31v-39h-566v39l154 31v950h-475v-950 l217 -31v-39h-565v39l153 31v950h-180zM422 1085h475q0 157 6 242q-17 95 -79.5 148t-159.5 53q-71 0 -120.5 -32t-84.5 -101q-24 -45 -30.5 -99t-6.5 -211z" />
<glyph unicode="ffk" horiz-adv-x="2553" d="M47 1020l25 65h155q1 102 8 156.5t23 95.5q44 118 170.5 189t292.5 71q167 0 260 -67q64 79 172 124.5t238 45.5q141 0 242.5 -32t101.5 -79v-1057l342 390q43 49 43 73q0 19 -30.5 29t-121.5 20v41h459v-41q-125 -23 -169 -42.5t-89 -73.5l-232 -271l488 -585l172 -31 v-41h-359l-423 516l-80 -94v-350l153 -31v-41h-497v41l155 31v1380q0 76 -56 127t-136 51q-85 0 -137.5 -31.5t-88.5 -101.5q-24 -45 -30 -96.5t-6 -202.5v-113h297l-25 -65h-272v-950l217 -31v-39h-566v39l154 31v950h-475v-950l217 -31v-39h-565v39l153 31v950h-180z M422 1085h475q0 165 6 244q-19 96 -81 147.5t-158 51.5q-71 0 -120.5 -32t-84.5 -101q-24 -45 -30.5 -99t-6.5 -211z" />
<glyph unicode="fft" horiz-adv-x="2066" d="M47 1020l25 65h155q1 102 8 156.5t23 95.5q47 121 172.5 190.5t290.5 69.5q168 0 258 -65q58 78 154.5 123t203.5 45q114 0 183 -47.5t69 -124.5q0 -49 -27.5 -76t-72.5 -27q-34 0 -56 17.5t-30 37.5t-14 50q-12 56 -31 81t-62 25q-49 0 -95.5 -33t-74.5 -98 q-23 -54 -28.5 -117.5t-5.5 -189.5v-113h364l248 269l37 -4v-265h293l-17 -71h-276v-725q0 -124 18 -156q31 -57 103 -57q41 0 82.5 22.5t72.5 61.5l35 -27q-46 -71 -120.5 -112t-157.5 -41q-100 0 -160 57q-37 34 -52.5 87t-15.5 146v750h-454v-950l217 -31v-39h-566v39 l154 31v950h-475v-950l217 -31v-39h-565v39l153 31v950h-180zM422 1085h475q0 165 6 244q-19 96 -81 147.5t-158 51.5q-71 0 -119.5 -31.5t-85.5 -101.5q-24 -45 -30.5 -99t-6.5 -211z" />
<glyph unicode="fh" horiz-adv-x="1935" d="M47 1020l25 65h155q0 164 6 236t25 119q44 118 170.5 189t292.5 71q141 0 242.5 -32t101.5 -79v-653q94 82 200.5 126t209.5 44q81 0 144.5 -33t92.5 -90q17 -32 22 -87t5 -204v-622l153 -29v-41h-501v41l153 29v602q0 167 -24 227q-40 94 -160 94q-171 0 -295 -133v-788 l154 -31v-41h-498v41l156 31v1372q0 80 -55 133t-138 53q-85 0 -137 -31.5t-88 -101.5q-24 -45 -30.5 -97t-6.5 -202v-113h297l-25 -65h-272v-950l217 -31v-39h-565v39l153 31v950h-180z" />
<glyph unicode="fj" horiz-adv-x="1247" d="M47 1020l25 65h155q0 155 6.5 233t24.5 122q47 118 172.5 189t278.5 71q170 0 267 -50.5t97 -136.5q0 -53 -30.5 -85.5t-81.5 -32.5q-88 0 -130 125q-20 64 -48 85t-93 21q-83 0 -137.5 -32t-93.5 -101q-21 -36 -29 -99.5t-8 -195.5v-113h303l328 99h18v-867 q0 -302 -11.5 -403t-55.5 -182q-70 -129 -172.5 -196.5t-225.5 -67.5q-104 0 -164.5 44.5t-60.5 122.5q0 57 30 90t81 33q77 0 112 -94q22 -58 43.5 -79t59.5 -21q170 0 170 338v1093l-152 25h-303v-950l217 -31v-39h-565v39l153 31v950h-180z" />
<glyph unicode="fk" horiz-adv-x="1884" d="M47 1020l25 65h155q0 164 6 236t25 119q44 118 170.5 189t292.5 71q141 0 242.5 -32t101.5 -79v-1057l342 390q43 49 43 73q0 19 -30.5 29t-121.5 20v41h459v-41q-125 -23 -169 -42.5t-89 -73.5l-231 -271l487 -585l172 -31v-41h-358l-424 516l-80 -94v-350l154 -31v-41 h-498v41l156 31v1372q0 80 -55 133t-138 53q-85 0 -137 -31.5t-88 -101.5q-24 -45 -30.5 -97t-6.5 -202v-113h297l-25 -65h-272v-950l217 -31v-39h-565v39l153 31v950h-180z" />
<glyph unicode="ft" horiz-adv-x="1396" d="M47 1020l25 65h155q0 152 6 230.5t23 124.5q37 107 153 183.5t261 76.5q112 0 181 -47.5t69 -124.5q0 -48 -28 -75.5t-73 -27.5q-34 0 -56 17.5t-30 37.5t-14 50q-12 56 -30.5 81t-61.5 25q-49 0 -95.5 -33t-74.5 -98q-23 -54 -29 -119t-6 -188v-113h364l248 269l37 -4 v-265h293l-16 -71h-277v-725q0 -122 19 -156q31 -57 102 -57q41 0 83 23t73 61l34 -27q-46 -71 -120.5 -112t-157.5 -41q-100 0 -160 57q-37 34 -52 86.5t-15 146.5v750h-455v-950l217 -31v-39h-565v39l153 31v950h-180z" />
<glyph horiz-adv-x="0" />
<glyph horiz-adv-x="682" />
<glyph horiz-adv-x="0" />
<glyph horiz-adv-x="0" />
<glyph unicode="&#xd;" horiz-adv-x="593" />
<glyph unicode=" "  horiz-adv-x="557" />
<glyph unicode="&#x09;" horiz-adv-x="557" />
<glyph unicode="&#xa0;" horiz-adv-x="557" />
<glyph unicode="!" horiz-adv-x="616" d="M176 111q0 59 36 97t95 38q62 0 98.5 -37.5t36.5 -97.5q0 -56 -37 -93.5t-98 -37.5q-59 0 -95 38t-36 93zM184 1456q0 62 33.5 101.5t91.5 39.5q62 0 92.5 -37.5t30.5 -97.5q0 -46 -41 -397q-38 -352 -51 -594h-64q-18 286 -51 586q-41 358 -41 399z" />
<glyph unicode="&#x22;" horiz-adv-x="757" d="M115 1577q0 57 28.5 90t79.5 33t80 -32t29 -83q0 -40 -17.5 -126.5t-37.5 -202t-23 -222.5h-61q-3 106 -22.5 221t-37.5 199.5t-18 122.5zM426 1577q0 57 29 90t80 33t79.5 -32t28.5 -83q0 -40 -17.5 -126.5t-37.5 -202t-23 -222.5h-61q-3 106 -22.5 221t-37.5 199.5 t-18 122.5z" />
<glyph unicode="#" horiz-adv-x="1380" d="M80 537l29 114h286l49 310h-286l24 114h281l55 350h119l-55 -350h305l55 350h117l-55 -350h292l-24 -114h-287l-49 -310h287l-29 -114h-276l-54 -349h-116l53 349h-305l-54 -349h-118l53 349h-297zM514 651h305l49 310h-305z" />
<glyph unicode="$" horiz-adv-x="1099" d="M106 248q0 56 30 88.5t81 32.5q30 0 52 -11.5t36 -34.5t21.5 -42.5t15.5 -51.5q11 -38 19.5 -58t28 -46.5t53 -40.5t83.5 -18v614q-158 87 -222 136q-160 124 -177 297q-2 22 -2 46q0 172 110 291.5t291 142.5v226h86v-222q151 -6 256 -82.5t105 -183.5 q0 -56 -30.5 -88.5t-82.5 -32.5q-29 0 -50.5 10.5t-35 33t-21 42.5t-16.5 54q-20 69 -47 104.5t-78 52.5v-583q40 -22 56.5 -31.5t54 -32t55 -35.5t49 -36.5t47.5 -42t39 -45t35 -52.5t24.5 -57.5t17.5 -66.5t5 -74q0 -177 -107 -301.5t-276 -157.5v-201h-86v191 q-180 0 -300 77.5t-120 188.5zM340 1274q0 -96 48.5 -165.5t137.5 -129.5v530q-85 -12 -135.5 -74.5t-50.5 -160.5zM612 72q90 20 142.5 87.5t52.5 166.5q0 96 -51 166t-144 133v-553z" />
<glyph unicode="%" horiz-adv-x="1652" d="M74 1155q0 186 93 313t228 127t229.5 -128t94.5 -312q0 -180 -94 -305t-230 -125t-228.5 124t-92.5 306zM268 1157q0 -146 13 -223.5t39.5 -106t74.5 -28.5q49 0 76 29t40 106.5t13 222.5t-13.5 225t-40.5 111t-75 31t-74.5 -31t-39.5 -110.5t-13 -225.5zM279 0l960 1577 h143l-962 -1577h-141zM936 410q0 186 93 313t228 127t229.5 -128t94.5 -312q0 -180 -94 -305t-230 -125t-228.5 124t-92.5 306zM1130 412q0 -146 13 -224t39.5 -106.5t74.5 -28.5q49 0 76 29t40 107t13 223t-13.5 225t-40.5 110.5t-75 30.5t-74.5 -31t-39.5 -110.5 t-13 -224.5z" />
<glyph unicode="&#x26;" horiz-adv-x="1662" d="M184 369q0 145 85 258.5t298 255.5q-153 193 -153 360q0 157 110 255.5t264 98.5q124 0 209.5 -65t85.5 -176q0 -195 -305 -414l418 -516q113 195 113 377q0 38 -12.5 54t-51 25.5t-135.5 20.5v49h522v-49q-93 -8 -135.5 -21.5t-59.5 -36t-30 -73.5q-55 -224 -162 -407 l211 -261l176 -57v-47h-356l-156 193q-199 -213 -491 -213q-220 0 -332.5 105t-112.5 284zM397 459q0 -72 18.5 -135t55.5 -115t101 -82.5t147 -30.5q195 0 350 160l-459 571q-122 -92 -167.5 -180.5t-45.5 -187.5zM557 1335q0 -63 37 -138t141 -204q116 82 162.5 153 t46.5 159q0 105 -54.5 162t-144.5 57q-81 0 -134.5 -48.5t-53.5 -140.5z" />
<glyph unicode="'" horiz-adv-x="446" d="M115 1577q0 57 28.5 90t79.5 33t80 -32t29 -83q0 -40 -17.5 -126.5t-37.5 -202t-23 -222.5h-61q-3 106 -22.5 221t-37.5 199.5t-18 122.5z" />
<glyph unicode="(" horiz-adv-x="624" d="M96 625q0 169 42.5 342t110 312t145.5 248t155 173l22 -21q-42 -65 -89 -173t-92.5 -247.5t-75 -309.5t-29.5 -326q0 -575 262 -1006l-33 -27q-418 427 -418 1035z" />
<glyph unicode=")" horiz-adv-x="624" d="M53 1679l23 21q61 -51 123.5 -129.5t121.5 -185.5t105 -225.5t74 -258.5t28 -276q0 -609 -417 -1035l-33 27q262 431 262 1006q0 156 -29.5 326t-75.5 309.5t-93 247.5t-89 173z" />
<glyph unicode="*" horiz-adv-x="985" d="M129 1133q0 42 35 61.5t109 36t116 35.5l60 26l-64 27q-35 15 -88.5 27.5t-85.5 20t-57 27.5t-25 54q0 35 22 58.5t62 23.5q28 0 54 -16t44 -37.5t48 -53.5t59 -53l53 -39l-8 70q-5 44 -26 107.5t-21 97.5q0 47 21.5 70.5t56.5 23.5q33 0 54 -23.5t21 -70.5 q-1 -32 -22 -95t-25 -114l-6 -66l51 41q32 25 63.5 58.5t49 53t41.5 34t51 14.5q41 0 62.5 -23.5t21.5 -58.5q0 -34 -25 -54t-57 -27.5t-85.5 -20t-88.5 -27.5l-63 -27l59 -26q39 -17 93.5 -31t86.5 -21.5t56 -27.5t24 -53q0 -36 -23.5 -58t-60.5 -22q-28 0 -55 16.5 t-45.5 38t-47.5 52.5t-55 50l-53 41l10 -69q6 -45 25.5 -117.5t19.5 -99.5q0 -36 -19.5 -59t-55.5 -23q-37 0 -57.5 24t-20.5 66q0 31 21 102.5t26 108.5l8 67l-57 -43q-26 -19 -55 -50t-47.5 -52.5t-45.5 -38t-55 -16.5q-38 0 -61 22t-23 58z" />
<glyph unicode="+" horiz-adv-x="1028" d="M94 645v100h369v369h104v-369h367v-100h-367v-371h-104v371h-369z" />
<glyph unicode="," horiz-adv-x="538" d="M127 125q0 59 39.5 98t97.5 39q64 0 105 -51t41 -123q0 -241 -215 -397l-41 59q57 42 92 91.5t35 84.5q0 26 -16 45t-38.5 31t-45 26t-38.5 38t-16 59z" />
<glyph unicode="-" horiz-adv-x="952" d="M150 430v172h653v-172h-653z" />
<glyph unicode="." horiz-adv-x="536" d="M127 119q0 62 38.5 102.5t100.5 40.5q65 0 104.5 -40.5t39.5 -102.5q0 -59 -40 -99t-104 -40q-62 0 -100.5 40.5t-38.5 98.5z" />
<glyph unicode="/" horiz-adv-x="743" d="M96 -346l410 2023h141l-411 -2023h-140z" />
<glyph unicode="0" horiz-adv-x="1310" d="M121 780q0 226 70 413.5t192.5 295.5t269.5 108t270.5 -108t195 -296t71.5 -413q0 -223 -70.5 -406.5t-194 -288.5t-272.5 -105q-148 0 -270 104.5t-192 288t-70 407.5zM371 782q0 -267 27.5 -422.5t88.5 -226t166 -70.5q157 0 222 163t65 556q0 394 -66 562.5 t-221 168.5q-103 0 -164.5 -73.5t-89.5 -232t-28 -425.5z" />
<glyph unicode="1" horiz-adv-x="860" d="M80 0v45l270 41v1202h-262v43q230 73 434 266l43 -16v-1495l264 -41v-45h-749z" />
<glyph unicode="2" horiz-adv-x="1185" d="M47 47q406 391 572.5 632.5t166.5 436.5q0 145 -73.5 235.5t-190.5 90.5q-99 0 -195 -66t-153 -172l-43 23q62 166 194 268t287 102q175 0 292.5 -125.5t117.5 -312.5q0 -201 -167 -427.5t-552 -547.5h588q32 35 81 106t83 134l45 -16l-156 -449h-45l-27 41h-806z" />
<glyph unicode="3" horiz-adv-x="1134" d="M90 258q0 58 31 91.5t84 33.5q41 0 69.5 -23t41.5 -57.5t29.5 -75t33.5 -75t54 -57.5t91 -23q123 0 213 103t90 243q0 148 -102 250t-250 102q-35 0 -117 -10l-12 55q165 74 255.5 183t90.5 235q0 98 -52.5 159.5t-131.5 61.5q-100 0 -186 -66.5t-134 -177.5l-49 13 q34 166 159.5 270t289.5 104q145 0 238.5 -82.5t93.5 -209.5q0 -104 -67.5 -199t-190.5 -164v-8q162 -14 259 -126t97 -286q0 -148 -72 -273t-196 -197t-271 -72q-161 0 -275 81.5t-114 196.5z" />
<glyph unicode="4" horiz-adv-x="1191" d="M20 471l826 1126l53 -20v-985h191v-156h-191v-350l182 -39v-47h-635v47l246 39v350h-655zM219 600l2 -8h471v649h-8z" />
<glyph unicode="5" horiz-adv-x="1120" d="M72 238q0 57 28.5 87.5t79.5 30.5q48 0 77.5 -29.5t45.5 -71t34 -83t58 -71t103 -29.5q135 0 228 113.5t93 277.5q0 172 -103 281.5t-267 109.5q-126 0 -222 -80l-30 4l106 772h576q25 28 53 82l43 -14l-76 -252h-526l-51 -354q85 32 178 32q227 0 369.5 -138.5 t142.5 -358.5q0 -157 -75.5 -287.5t-206 -205t-286.5 -74.5q-160 0 -266 74t-106 184z" />
<glyph unicode="6" horiz-adv-x="1208" d="M113 555q0 342 210.5 624.5t561.5 411.5l16 -51q-183 -97 -339 -306t-181 -390q44 47 129 76.5t178 29.5q197 0 321 -130t124 -337q0 -223 -145 -363t-374 -140q-235 0 -368 153t-133 422zM352 494q0 -195 74.5 -308.5t200.5 -113.5q120 0 191 102.5t71 274.5 q0 178 -76 281.5t-205 103.5q-70 0 -132 -30t-99 -81q-25 -109 -25 -229z" />
<glyph unicode="7" horiz-adv-x="1009" d="M45 1233l154 389l47 -14q0 -37 8 -58h719l16 -24q-184 -427 -262 -640t-264 -788q-38 -118 -131 -118q-46 0 -72.5 27.5t-26.5 76.5q0 38 19.5 90t62.5 141l506 1051h-602q-66 -55 -131 -156z" />
<glyph unicode="8" horiz-adv-x="1218" d="M119 399q0 129 78 231t239 185q-139 91 -203.5 185t-64.5 206q0 170 126 280.5t320 110.5q183 0 301.5 -97.5t118.5 -246.5q0 -109 -67.5 -198t-198.5 -154q175 -106 256.5 -217t81.5 -244q0 -195 -146.5 -327.5t-363.5 -132.5q-206 0 -341.5 119t-135.5 300zM324 401 q0 -154 81 -241.5t222 -87.5q134 0 213.5 75.5t79.5 202.5q0 129 -93.5 227.5t-304.5 192.5q-96 -60 -147 -155t-51 -214zM360 1276q0 -101 74.5 -180.5t237.5 -153.5q182 133 182 311q0 114 -69 183t-183 69q-109 0 -175.5 -62.5t-66.5 -166.5z" />
<glyph unicode="9" horiz-adv-x="1210" d="M76 1087q0 223 144.5 363.5t373.5 140.5q235 0 368.5 -153t133.5 -422q0 -342 -210.5 -624.5t-561.5 -411.5l-17 51q183 97 339 306t181 390q-44 -47 -129 -76.5t-178 -29.5q-197 0 -320.5 129.5t-123.5 336.5zM319 1122q0 -178 76 -281.5t205 -103.5q70 0 132 30t99 81 q25 109 25 229q0 195 -74 308.5t-200 113.5q-120 0 -191.5 -102.5t-71.5 -274.5z" />
<glyph unicode=":" horiz-adv-x="581" d="M150 119q0 62 38.5 102.5t100.5 40.5q65 0 104 -40t39 -103q0 -59 -39.5 -99t-103.5 -40q-62 0 -100.5 40.5t-38.5 98.5zM150 821q0 62 38.5 103t100.5 41q65 0 104 -40.5t39 -103.5q0 -59 -39.5 -99t-103.5 -40q-62 0 -100.5 40.5t-38.5 98.5z" />
<glyph unicode=";" horiz-adv-x="585" d="M150 125q0 58 40 97.5t99 39.5q66 0 106.5 -55t40.5 -146q0 -213 -217 -370l-41 59q57 42 92 91.5t35 84.5q0 22 -16 39.5t-38.5 30.5t-45.5 28t-39 40.5t-16 60.5zM152 821q0 62 38.5 103t100.5 41q65 0 104 -40.5t39 -103.5q0 -59 -39.5 -99t-103.5 -40 q-62 0 -100.5 40.5t-38.5 98.5z" />
<glyph unicode="&#x3c;" horiz-adv-x="1062" d="M78 635v104l837 400v-125l-690 -316v-8l690 -319v-133z" />
<glyph unicode="=" horiz-adv-x="1159" d="M160 492v90h839v-90h-839zM160 821v90h839v-90h-839z" />
<glyph unicode="&#x3e;" horiz-adv-x="1064" d="M147 248v123l691 319v8l-691 316v135l838 -399v-105z" />
<glyph unicode="?" horiz-adv-x="841" d="M102 113q0 59 37 96t97 37q58 0 95.5 -37t37.5 -96t-38 -96t-98 -37q-59 0 -95 36.5t-36 96.5zM162 1526q0 38 25.5 54.5t82.5 16.5q95 0 183.5 -41.5t153.5 -110.5t104 -164t39 -198q0 -168 -107 -261t-307 -99l-62 -2v-250h-73v434h80q399 0 399 197q0 156 -272 262 q-158 60 -202 89t-44 73z" />
<glyph unicode="@" horiz-adv-x="1792" d="M117 416q0 158 45 299t126 248.5t189.5 186.5t238.5 120t269 41q153 0 281.5 -50.5t214 -137t133 -203t47.5 -248.5q0 -159 -63.5 -299.5t-173 -225t-236.5 -84.5q-98 0 -154.5 48t-56.5 120q0 40 10 50l-8 2q-144 -193 -315 -193q-102 0 -155.5 67t-53.5 177 q0 137 75 279t195.5 235.5t241.5 93.5q107 0 159 -80h9l22 80h164l-166 -594q-18 -59 -18 -102q0 -44 22 -62t62 -18q135 0 236.5 144.5t101.5 355.5q0 112 -33 204.5t-89 156t-132 107.5t-161.5 64.5t-178.5 20.5q-134 0 -252 -43t-205 -119.5t-150 -177.5t-95 -220 t-32 -245q0 -65 8.5 -125t29.5 -124t54.5 -118t86.5 -103t121.5 -83t164.5 -54t211 -20q226 0 363 82l22 -59q-204 -103 -436 -103q-117 0 -222.5 24.5t-201 79.5t-165 135.5t-110 201t-40.5 268.5zM633 338q0 -71 20.5 -103t65.5 -32q64 0 130.5 55.5t121.5 151.5 q96 167 96 323q0 121 -90 121q-57 0 -119 -45.5t-111.5 -117t-81.5 -166.5t-32 -187z" />
<glyph unicode="A" horiz-adv-x="1523" d="M-49 0v47q66 10 110 23.5t73 28.5t50 43.5t33.5 55.5t30.5 76l397 1112l-53 121l201 111l540 -1446q18 -49 39 -72.5t58.5 -35.5t111.5 -17v-47h-651v47q93 4 138.5 12t59 20t13.5 36q0 27 -23 90l-135 375h-495l-111 -310q-23 -67 -23 -96q0 -53 51.5 -82t159.5 -45v-47 h-575zM477 662h436l-215 595h-8z" />
<glyph unicode="B" horiz-adv-x="1431" d="M100 0v47l174 39v1405l-174 39v47h607q267 0 391 -84q72 -51 112.5 -130t40.5 -169q0 -134 -88 -225t-250 -125v-8q184 -20 296 -135t112 -283q0 -94 -36 -176t-101 -136q-70 -57 -173 -81.5t-270 -24.5h-641zM489 201q0 -72 38 -97.5t143 -25.5q212 0 312.5 87 t100.5 271q0 185 -102 273t-317 88h-175v-596zM489 879h127q104 0 172 6q113 12 173.5 94t60.5 221q0 134 -76 213q-44 46 -106 64t-174 18h-177v-616z" />
<glyph unicode="C" horiz-adv-x="1585" d="M115 778q0 237 95.5 424t266.5 291t387 104q250 0 441 -124h8l100 104h37v-471h-61q-35 103 -84 184q-71 115 -169 166t-237 51q-253 0 -389.5 -185.5t-136.5 -528.5t138 -532t390 -189t385 192q80 112 109 273h55v-537h-49l-94 135q-108 -81 -216 -118t-235 -37 q-218 0 -386.5 100.5t-261.5 282t-93 415.5z" />
<glyph unicode="D" horiz-adv-x="1658" d="M100 0v47l174 39v1405l-174 39v47h510q244 0 390 -34t253 -116q138 -106 213.5 -274t75.5 -369q0 -209 -80 -384t-223 -279q-89 -65 -194.5 -93t-258.5 -28h-686zM489 201q0 -70 45.5 -96.5t167.5 -26.5q151 0 246.5 38.5t169.5 127.5q82 101 125 247t43 318 q0 354 -174 537q-78 81 -183 115t-278 34h-162v-1294z" />
<glyph unicode="E" horiz-adv-x="1417" d="M100 0v47l174 39v1405l-174 39v47h1139l35 -451h-49q-63 222 -148 369h-588v-623h367q53 112 76 246h49v-573h-49q-18 125 -76 246h-367v-709h578q38 62 72 136t52.5 124.5t47.5 136.5h68l-76 -479h-1131z" />
<glyph unicode="F" horiz-adv-x="1331" d="M100 0v47l174 39v1405l-174 39v47h1139l35 -451h-49q-63 222 -148 369h-588v-623h367q53 112 76 246h49v-573h-49q-18 125 -76 246h-367v-705l234 -39v-47h-623z" />
<glyph unicode="G" horiz-adv-x="1654" d="M113 770q0 176 58.5 329.5t159.5 262.5t244 172t306 63q121 0 223.5 -32t169.5 -92h8l111 104h45v-471h-47q-98 223 -205 311t-277 88q-264 0 -399 -186t-135 -549q0 -696 516 -696q102 0 179 31.5t114 93.5q16 27 16 106v400l-184 38v48h581v-48l-182 -38v-539 q-84 -81 -242 -133.5t-317 -52.5q-215 0 -384.5 100.5t-264 280.5t-94.5 409z" />
<glyph unicode="H" horiz-adv-x="1755" d="M92 0v47l184 39v1405l-184 39v47h582v-47l-182 -39v-621h774v621l-185 39v47h582v-51l-182 -35v-1405l182 -43v-43h-582v47l185 39v702h-774v-702l182 -39v-47h-582z" />
<glyph unicode="I" horiz-adv-x="765" d="M92 0v47l184 39v1405l-184 39v47h582v-47l-182 -39v-1405l182 -39v-47h-582z" />
<glyph unicode="J" horiz-adv-x="741" d="M-264 -354q0 61 32.5 97t88.5 36q77 0 112 -94q41 -111 125 -111q74 0 121 84.5t47 243.5v1589l-184 39v47h581v-47l-182 -39v-1174q0 -299 -12 -401t-57 -184q-71 -127 -184 -195.5t-242 -68.5q-114 0 -180 47.5t-66 130.5z" />
<glyph unicode="K" horiz-adv-x="1603" d="M92 0v47l184 39v1405l-184 39v47h582v-47l-182 -39v-733l579 649q33 36 33 61q0 51 -172 62v47h541v-47q-142 -25 -196 -47.5t-103 -79.5l-406 -463l657 -854l228 -39v-47h-445l-583 776l-133 -151v-539l182 -39v-47h-582z" />
<glyph unicode="L" horiz-adv-x="1343" d="M100 0v47l174 39v1405l-174 39v47h584v-47l-195 -39v-1409h592q38 63 72.5 140.5t51.5 125.5t48 141h54l-76 -489h-1131z" />
<glyph unicode="M" horiz-adv-x="2072" d="M92 0v47l184 39v1405l-184 39v47h430l510 -1215h10l510 1215h428v-47l-182 -39v-1405l182 -39v-47h-581v47l184 39v1257h-8l-582 -1363h-55l-571 1372h-9v-1266l183 -39v-47h-449z" />
<glyph unicode="N" horiz-adv-x="1695" d="M92 0v47l184 39v1405l-184 39v47h414l844 -1159v1073l-183 39v47h449v-47l-184 -39v-1532h-64l-1010 1407v-1280l183 -39v-47h-449z" />
<glyph unicode="O" horiz-adv-x="1712" d="M113 788q0 170 57 320.5t155 257.5t236 169t295 62t295 -62t236 -169t155 -257.5t57 -320.5t-57 -320t-155 -257t-236 -169t-295 -62t-295 62t-236 169t-155 257t-57 320zM371 791q0 -337 129 -528t356 -191t356 191.5t129 531.5q0 334 -128 522t-355 188 q-229 0 -358 -189t-129 -525z" />
<glyph unicode="P" horiz-adv-x="1357" d="M100 0v47l174 39v1405l-174 39v47h637q247 0 397 -123.5t150 -345.5q0 -208 -153 -320t-424 -112h-218v-590l234 -39v-47h-623zM489 756h154q124 0 201 27.5t123 82.5q82 97 82 262q0 131 -49.5 218.5t-139.5 123.5q-62 25 -182 25h-189v-739z" />
<glyph unicode="Q" horiz-adv-x="1712" d="M113 788q0 170 57 320.5t155 257.5t236 169t295 62t295 -62t236 -169t155 -257.5t57 -320.5q0 -203 -79 -373.5t-225.5 -278t-333.5 -122.5v-8q52 -12 130.5 -49.5t156 -65.5t151.5 -28q67 0 112 25.5t88 82.5l56 -20q-61 -140 -158 -213.5t-207 -73.5q-52 0 -99 17 t-84 44.5t-72 60.5t-69.5 66.5t-70 61t-80.5 44.5t-94 17q-63 0 -95 -25.5t-32 -66.5q0 -23 17.5 -52.5t17.5 -55.5q0 -44 -30.5 -73.5t-74.5 -29.5q-46 0 -74 31t-28 82q0 73 60 137.5t165 104.5v8q-157 35 -279 142.5t-188.5 266.5t-66.5 344zM371 791q0 -337 129 -528 t356 -191t356 191.5t129 529.5q0 336 -127.5 524t-355.5 188q-229 0 -358 -189t-129 -525z" />
<glyph unicode="R" horiz-adv-x="1501" d="M100 0v47l174 39v1405l-174 39v47h617q162 0 284.5 -51t192.5 -153.5t70 -244.5q0 -152 -89.5 -250t-254.5 -137l436 -655l233 -39v-47h-444l-459 717h-197v-631l234 -39v-47h-623zM489 797h134q123 0 198.5 28t124.5 82q82 95 82 242q0 123 -48.5 204t-139.5 117 q-65 25 -183 25h-168v-698z" />
<glyph unicode="S" horiz-adv-x="1226" d="M129 524l51 13q62 -248 162.5 -357.5t267.5 -109.5q141 0 223 68t82 186q0 64 -26 118.5t-69.5 95t-100 76t-119 68t-124.5 66t-118.5 74.5t-100 88t-69.5 112.5t-26 142.5q0 186 130.5 309t325.5 123q177 0 310 -127l65 107h41l19 -451h-54q-50 195 -140.5 289 t-229.5 94q-117 0 -184.5 -62t-67.5 -171q0 -64 25 -117.5t67 -92.5t96.5 -74t114.5 -67t120.5 -64.5t115 -73t96.5 -87.5t67 -112.5t25 -143.5q0 -196 -141 -329t-347 -133q-161 0 -327 102l-82 -84h-41z" />
<glyph unicode="T" horiz-adv-x="1544" d="M18 1126l76 451h1356l76 -451h-49q-77 220 -189 369h-405v-1409l223 -39v-47h-664v47l226 39v1409h-412q-110 -146 -188 -369h-50z" />
<glyph unicode="U" horiz-adv-x="1585" d="M68 1530v47h581v-47l-182 -39v-1026q0 -191 102 -292t279 -101q231 0 323 127q41 55 59.5 153.5t18.5 261.5v877l-182 39v47h449v-47l-185 -39v-963q0 -246 -78 -364q-60 -88 -176.5 -136t-271.5 -48q-158 0 -281.5 49.5t-191.5 138.5q-42 56 -61 130.5t-19 197.5v995z " />
<glyph unicode="V" horiz-adv-x="1476" d="M-16 1530v47h665v-47q-138 -8 -176.5 -19t-38.5 -45q0 -11 27 -94l346 -997h10l324 932q20 62 20 96q0 53 -47 82.5t-162 44.5v47h576v-47q-66 -10 -110 -23t-73 -28.5t-50 -43.5t-33.5 -55t-30.5 -77l-469 -1323h-35l-534 1425q-18 49 -39 72.5t-58.5 35.5t-111.5 17z " />
<glyph unicode="W" horiz-adv-x="2232" d="M-27 1530v47h666v-47q-98 -7 -142.5 -14.5t-58.5 -17.5t-14 -30q0 -19 27 -96l346 -997h10l250 805l-84 225q-18 49 -39 72.5t-58.5 35.5t-111.5 17v47h666v-47q-97 -6 -142.5 -14.5t-57 -19.5t-11.5 -34q0 -29 22 -90l346 -997h10l289 932q19 62 19 98q0 53 -45 80.5 t-162 44.5v47h575v-47q-82 -13 -131 -28t-81.5 -44t-48.5 -61.5t-36 -93.5l-422 -1323h-47l-401 1071l-342 -1071h-47l-535 1425q-18 49 -39 72.5t-58.5 35.5t-111.5 17z" />
<glyph unicode="X" horiz-adv-x="1611" d="M-20 0v41q123 16 190.5 46.5t118.5 98.5l434 586l-438 670q-27 40 -71.5 57.5t-164.5 30.5v47h619v-47q-86 -4 -114 -13t-28 -28q0 -25 27 -70l317 -485l330 448q33 48 33 74q0 57 -152 74v47h508v-47q-114 -21 -168.5 -47.5t-111.5 -93.5l-391 -527l477 -729 q30 -45 76.5 -62.5t144.5 -25.5v-45h-615v45q97 7 128.5 15.5t31.5 25.5q0 21 -33 70l-354 538l-377 -506q-35 -46 -35 -79q0 -51 173 -68v-41h-555z" />
<glyph unicode="Y" horiz-adv-x="1452" d="M-16 1530v47h671v-47q-86 -5 -134.5 -15.5t-64.5 -24.5t-16 -36q0 -30 27 -82l338 -604h8l285 539q24 49 24 88q0 58 -54 93t-159 42v47h578v-47q-36 -5 -64.5 -11.5t-52 -15.5t-40 -16t-32.5 -21.5t-25 -23t-21.5 -28.5t-19 -31t-20.5 -38t-22 -42l-361 -670v-547 l183 -39v-47h-582v47l184 39v584l-415 735q-28 49 -47 70t-58 35.5t-110 19.5z" />
<glyph unicode="Z" horiz-adv-x="1384" d="M63 0v57l938 1438h-651l-24 -45q-105 -190 -148 -322l-53 2l86 447h1065v-55l-942 -1440h684l24 37q110 167 199 387l53 -6l-106 -500h-1125z" />
<glyph unicode="[" horiz-adv-x="663" d="M207 -383v2062h407v-65h-241v-1933h241v-64h-407z" />
<glyph unicode="\" horiz-adv-x="745" d="M96 1677h144l409 -2023h-141z" />
<glyph unicode="]" horiz-adv-x="663" d="M49 -319h242v1933h-242v65h408v-2062h-408v64z" />
<glyph unicode="^" horiz-adv-x="1021" d="M96 680l379 776h74l377 -776h-86l-326 649h-8l-322 -649h-88z" />
<glyph unicode="_" horiz-adv-x="1425" d="M150 -61h1126v-91h-1126v91z" />
<glyph unicode="`" horiz-adv-x="348" d="M20 1671q0 38 23.5 63t56.5 25q80 0 113 -96l115 -348l-43 -23l-203 254q-62 76 -62 125z" />
<glyph unicode="a" horiz-adv-x="1075" d="M100 229q0 134 126.5 215.5t435.5 147.5v201q0 129 -37.5 182t-126.5 53q-88 0 -139.5 -42t-51.5 -114q0 -12 2 -36t2 -35q0 -52 -30 -85.5t-76 -33.5q-42 0 -68 27t-26 71q0 67 60.5 139t160.5 123q125 64 260 64q182 0 237 -109q17 -35 22 -86t5 -182v-469 q0 -101 16 -136.5t60 -35.5q29 0 51.5 13t48.5 46l35 -30q-47 -73 -97 -105t-116 -32q-82 0 -127 45t-55 139l-6 4q-60 -88 -145.5 -138t-174.5 -50q-109 0 -177.5 69.5t-68.5 179.5zM283 272q0 -83 39.5 -127.5t113.5 -44.5q66 0 126 36.5t100 101.5v294 q-217 -43 -298 -98.5t-81 -161.5z" />
<glyph unicode="b" horiz-adv-x="1232" d="M29 1573v26l325 101h21v-733q130 139 311 139q201 0 327 -144t126 -374q0 -259 -155.5 -433.5t-385.5 -174.5q-157 0 -283 94h-10l-94 -70h-33v1514zM375 307q0 -117 61 -187.5t162 -70.5q146 0 234 132t88 349t-85.5 341t-234.5 124q-140 0 -225 -106v-582z" />
<glyph unicode="c" horiz-adv-x="1095" d="M94 528q0 254 153 416t392 162q155 0 262 -71.5t107 -170.5q0 -53 -25.5 -84.5t-69.5 -31.5q-54 0 -83 31.5t-37 97.5q-12 98 -44 130.5t-104 32.5q-161 0 -251.5 -127t-90.5 -344q0 -209 92.5 -324.5t259.5 -115.5q94 0 174.5 38t135.5 112l22 30l39 -20l-10 -27 q-52 -135 -162.5 -208.5t-259.5 -73.5q-220 0 -360 153t-140 395z" />
<glyph unicode="d" horiz-adv-x="1243" d="M96 524q0 258 150 420t389 162q109 0 221 -31v441l-149 57v26l321 101h21v-1540l139 -31v-23l-303 -126h-15v176l-8 4q-128 -180 -342 -180q-182 0 -303 155t-121 389zM311 557q0 -206 78.5 -325t216.5 -119q80 0 147.5 32.5t102.5 87.5v586q0 110 -57.5 167.5 t-167.5 57.5q-143 0 -231.5 -133.5t-88.5 -353.5z" />
<glyph unicode="e" horiz-adv-x="1146" d="M96 526q0 258 151.5 419t395.5 161q201 0 308.5 -118t111.5 -345l-14 -12h-748v-47q0 -224 89.5 -339.5t264.5 -115.5q100 0 186 36t140 101l25 31l34 -21l-12 -28q-54 -125 -171.5 -196.5t-268.5 -71.5q-220 0 -356 151t-136 395zM305 688l537 19q6 24 6 84 q0 251 -223 251q-135 0 -217.5 -91.5t-102.5 -262.5z" />
<glyph unicode="f" horiz-adv-x="718" d="M47 1020l25 65h155q0 158 6 235t25 128q41 112 153.5 182t243.5 70q111 0 188 -50t77 -124q0 -44 -28.5 -72.5t-72.5 -28.5q-79 0 -100 105q-11 58 -33 82t-70 24q-105 0 -151 -100q-43 -90 -43 -338v-113h264l-24 -65h-240v-950l217 -31v-39h-565v39l153 31v950h-180z " />
<glyph unicode="g" horiz-adv-x="1052" d="M14 -264q0 84 58.5 148.5t195.5 123.5q-139 62 -139 168q0 28 11.5 56.5t38.5 62.5t83.5 66.5t136.5 58.5q-123 33 -199.5 122.5t-76.5 213.5q0 151 113.5 250.5t283.5 99.5q134 0 240 -66q14 41 31.5 76.5t42 70.5t58 55t71.5 20q48 0 83 -28.5t35 -74.5 q0 -41 -28 -68.5t-68 -27.5q-31 0 -55 26.5t-49 26.5q-24 0 -45.5 -30.5t-32.5 -73.5q60 -50 93.5 -117t33.5 -139q0 -138 -115 -244t-293 -119q-84 -6 -152.5 -42.5t-68.5 -86.5q0 -32 30.5 -57.5t86 -42.5t106 -28t119.5 -23t98 -19q260 -59 260 -262q0 -142 -112 -233 q-81 -65 -200.5 -98t-237.5 -33q-197 0 -318 71q-119 71 -119 197zM180 -240q0 -110 94 -172q82 -55 215 -55q138 0 236 49q119 58 119 172q0 72 -65 112t-244 75q-113 22 -199 47q-71 -32 -113.5 -94.5t-42.5 -133.5zM334 739q0 -37 4.5 -72t17 -74t32.5 -67.5t54.5 -47.5 t79.5 -19q56 0 96.5 27.5t62 74t31 96t9.5 103.5q0 48 -8 93t-27 92t-58.5 75.5t-95.5 28.5q-58 0 -99.5 -31t-61.5 -82t-28.5 -99t-8.5 -98z" />
<glyph unicode="h" horiz-adv-x="1267" d="M47 0v41l156 31v1446l-152 55v29l326 98h20v-764q94 82 200.5 126t209.5 44q81 0 144.5 -33t92.5 -90q17 -32 22 -87t5 -204v-622l154 -29v-41h-502v41l154 29v602q0 164 -25 227q-40 94 -160 94q-171 0 -295 -133v-788l154 -31v-41h-504z" />
<glyph unicode="i" horiz-adv-x="614" d="M63 0v41l156 31v852l-151 55v29l327 98h19v-1034l153 -31v-41h-504zM184 1464q0 58 36 95.5t95 37.5q61 0 97.5 -37.5t36.5 -95.5q0 -55 -37 -93t-97 -38q-59 0 -95 38t-36 93z" />
<glyph unicode="j" horiz-adv-x="573" d="M-293 -365q0 57 30 90t81 33q77 0 112 -94q22 -58 43.5 -79t59.5 -21q170 0 170 338v1022l-152 55v29l328 98h18v-789q0 -302 -11.5 -403t-55.5 -182q-70 -129 -172.5 -196.5t-225.5 -67.5q-104 0 -164.5 44.5t-60.5 122.5zM168 1466q0 57 36.5 94t94.5 37t95.5 -37 t37.5 -94q0 -58 -37 -95.5t-96 -37.5q-58 0 -94.5 37t-36.5 96z" />
<glyph unicode="k" horiz-adv-x="1210" d="M47 0v41l156 31v1446l-150 55v26l318 101h20v-1168l342 390q43 49 43 73q0 19 -30.5 29t-120.5 20v41h458v-41q-125 -23 -169 -42.5t-89 -73.5l-231 -271l487 -585l172 -31v-41h-358l-424 516l-80 -94v-350l154 -31v-41h-498z" />
<glyph unicode="l" horiz-adv-x="591" d="M59 0v39l144 31v1450l-144 53v26l314 101h18v-1630l141 -31v-39h-473z" />
<glyph unicode="m" horiz-adv-x="1857" d="M63 0v41l156 31v850l-151 57v27l317 100h21v-174q88 84 187.5 129t197.5 45q84 0 151.5 -47t81.5 -129q88 85 188.5 130.5t198.5 45.5q73 0 131 -33t86 -90q16 -34 21.5 -91t5.5 -200v-622l153 -29v-41h-501v41l153 29v602q0 150 -24 227q-30 94 -140 94 q-75 0 -144.5 -34t-121.5 -97q4 -82 4 -170v-622l154 -29v-41h-502v41l154 29v602q0 133 -25 227q-34 94 -139 94q-154 0 -262 -127v-794l153 -31v-41h-504z" />
<glyph unicode="n" horiz-adv-x="1251" d="M63 0v41l156 31v850l-151 57v27l317 100h21v-174q88 84 187.5 129t197.5 45q81 0 144.5 -33t92.5 -90q17 -32 22 -87t5 -204v-622l153 -29v-41h-501v41l153 29v602q0 167 -24 227q-40 94 -160 94q-154 0 -262 -127v-794l153 -31v-41h-504z" />
<glyph unicode="o" horiz-adv-x="1261" d="M92 543q0 243 153.5 403t385.5 160q152 0 275.5 -72.5t193 -201.5t69.5 -289t-69.5 -289t-193 -201.5t-275.5 -72.5q-232 0 -385.5 160t-153.5 403zM309 543q0 -221 85 -346t235 -125q151 0 237 126t86 347q0 220 -85 344.5t-236 124.5t-236.5 -125t-85.5 -346z" />
<glyph unicode="p" horiz-adv-x="1259" d="M47 -473l154 31v1366l-150 55v29l316 98h22v-180h8q59 90 148.5 135t185.5 45q126 0 225 -71t153 -195.5t54 -280.5q0 -257 -158 -418t-411 -161q-110 0 -199 30v-452l203 -31v-39h-551v39zM406 242q0 -88 56 -144.5t140 -56.5q156 0 252 134.5t96 350.5q0 207 -86 327 t-235 120q-64 0 -130.5 -34.5t-92.5 -84.5v-612z" />
<glyph unicode="q" horiz-adv-x="1232" d="M96 498q0 279 148 443.5t393 164.5q157 0 283 -94h10l92 69h33v-1523l153 -31v-39h-551v39l203 31v561q-130 -139 -311 -139q-201 0 -327 144t-126 374zM315 555q0 -217 85.5 -341t234.5 -124q139 0 225 107v585q0 117 -61 187.5t-162 70.5q-147 0 -234.5 -124.5 t-87.5 -360.5z" />
<glyph unicode="r" horiz-adv-x="849" d="M66 0v41l155 31v852l-151 57v27l317 100h21v-225q151 225 280 225q54 0 91.5 -37.5t37.5 -91.5q0 -50 -34 -83.5t-85 -33.5q-49 0 -77 39q-19 23 -32 31t-32 8q-45 0 -82 -51q-52 -67 -59 -98v-719l205 -31v-41h-555z" />
<glyph unicode="s" horiz-adv-x="890" d="M119 356h49q27 -315 262 -315q92 0 147.5 51t55.5 137q0 58 -28.5 102.5t-73.5 74t-100 55.5t-110 55.5t-100 65t-73.5 93.5t-28.5 132q0 143 99 221t282 78q152 0 241 -35v-285h-43q-30 258 -239 258q-82 0 -130 -44.5t-48 -120.5q0 -48 22 -86t58 -62.5t81.5 -49 t93.5 -44t93.5 -49.5t81.5 -64.5t58 -89t22 -123.5q0 -152 -102 -241.5t-275 -89.5q-150 0 -283 45z" />
<glyph unicode="t" horiz-adv-x="716" d="M59 1047l295 307l37 -4v-265h293l-16 -71h-277v-725q0 -122 19 -156q31 -57 102 -57q41 0 83 23t73 61l34 -27q-46 -71 -120.5 -112t-157.5 -41q-100 0 -160 57q-37 34 -52 86.5t-15 146.5v744h-134z" />
<glyph unicode="u" horiz-adv-x="1224" d="M45 1044v41h348v-690q0 -172 25 -229q15 -35 53 -55.5t90 -20.5q71 0 139 37t123 106v781l-153 30v41h348v-931l139 -50v-24l-307 -100h-14v186l-9 2q-73 -91 -168 -139.5t-198 -48.5q-83 0 -144 32t-90 92q-17 37 -22.5 93.5t-5.5 197.5v619z" />
<glyph unicode="v" horiz-adv-x="1159" d="M25 1044v41h507v-41q-84 -3 -112.5 -14t-28.5 -35q0 -23 12 -61l236 -680h8l221 635q19 59 19 82q0 31 -27.5 45.5t-118.5 27.5v41h416v-41q-77 -12 -116 -31t-56 -44.5t-37 -81.5l-319 -907h-90l-367 976q-19 50 -45 66t-102 22z" />
<glyph unicode="w" horiz-adv-x="1738" d="M33 1044v41h508v-41q-95 -6 -121.5 -14t-26.5 -31q0 -6 3 -15.5t8 -25t8 -24.5l204 -680h9l213 612l-29 90q-15 46 -42 64t-85 24v41h467v-41q-95 -6 -121.5 -14t-26.5 -31q0 -6 3 -15.5t8 -25t8 -24.5l205 -680h8l221 635q19 52 19 80q0 32 -31 47.5t-115 27.5v41h416 v-41q-77 -12 -116 -31t-56 -44.5t-37 -81.5l-320 -907h-90l-247 765l-271 -765h-90l-336 976q-17 50 -44 66t-103 22z" />
<glyph unicode="x" horiz-adv-x="1185" d="M0 0v41q103 15 161 46.5t107 98.5l250 340l-278 430q-27 42 -65 59t-126 29v41h514v-41q-108 -8 -108 -43q0 -21 30 -67l162 -250l162 213q24 31 30.5 45.5t6.5 32.5q0 49 -119 69v41h422v-41q-99 -20 -144.5 -46t-97.5 -93l-219 -284l320 -492q28 -44 64.5 -62.5 t111.5 -25.5v-41h-510v41q75 8 98 15.5t23 27.5q0 18 -33 68l-201 307l-205 -271q-37 -47 -37 -73q0 -57 134 -74v-41h-453z" />
<glyph unicode="y" horiz-adv-x="1171" d="M18 1044v41h506v-41q-82 -5 -108.5 -12.5t-26.5 -27.5q0 -16 17 -62l249 -647h11l192 588q14 41 14 73q0 80 -157 88v41h461v-41q-118 -20 -160 -50t-70 -113l-399 -1170q-40 -118 -96 -174q-63 -69 -175 -69q-75 0 -121 37.5t-46 99.5q0 48 31 77t83 29q40 0 62.5 -22 t31.5 -72q4 -38 12 -49.5t29 -11.5q34 0 62 39.5t59 130.5l84 258l-399 979q-19 38 -52 56.5t-94 24.5z" />
<glyph unicode="z" horiz-adv-x="1050" d="M80 0v57l639 963h-453q-82 -230 -102 -342l-43 2l24 405h820v-55l-648 -964h476q70 177 100 331l43 -6l-14 -391h-842z" />
<glyph unicode="{" horiz-adv-x="669" d="M59 655v47q105 0 151 58.5t46 187.5q0 82 -26.5 256.5t-26.5 231.5q0 126 72 193t204 67q62 0 131 -27l-12 -53q-56 10 -84 10q-65 0 -100 -51.5t-35 -142.5q0 -52 25.5 -226.5t25.5 -255.5q0 -213 -147 -270v-8q78 -31 112.5 -90.5t34.5 -167.5q0 -83 -25.5 -286.5 t-25.5 -260.5q0 -99 32 -144t103 -45q40 0 84 13l12 -60q-76 -28 -145 -28q-137 0 -199.5 60t-62.5 194q0 69 26.5 257.5t26.5 282.5q0 140 -44.5 199t-152.5 59z" />
<glyph unicode="|" horiz-adv-x="557" d="M207 -348v2025h143v-2025h-143z" />
<glyph unicode="}" horiz-adv-x="669" d="M59 -369l13 60q44 -13 84 -13q71 0 103 45t32 144q0 57 -25.5 260.5t-25.5 286.5q0 108 34.5 167.5t112.5 90.5v8q-147 57 -147 270q0 81 25.5 255.5t25.5 226.5q0 91 -35 142.5t-100 51.5q-28 0 -84 -10l-13 53q69 27 131 27q133 0 205 -67.5t72 -192.5 q0 -57 -26.5 -231.5t-26.5 -256.5q0 -129 45.5 -187.5t150.5 -58.5v-47q-108 0 -152 -59t-44 -199q0 -94 26.5 -282.5t26.5 -257.5q0 -134 -62.5 -194t-199.5 -60q-70 0 -146 28z" />
<glyph unicode="~" horiz-adv-x="1204" d="M164 457q0 44 12 89t38 89t75.5 72t116.5 28q73 0 217 -53t221 -53q64 0 94 26.5t45 79.5h61q0 -44 -12 -89t-37.5 -89t-75 -72t-116.5 -28q-72 0 -217 54t-221 54q-64 0 -94.5 -27.5t-45.5 -80.5h-61z" />
<glyph unicode="&#xa1;" horiz-adv-x="559" d="M145 975q0 56 37.5 93.5t98.5 37.5q59 0 95 -38t36 -93q0 -59 -36 -97t-95 -38q-62 0 -99 38t-37 97zM156 -377q0 46 41 397q38 352 51 594h63q18 -283 51 -585q41 -358 41 -400q0 -62 -33 -101.5t-91 -39.5q-62 0 -92.5 37.5t-30.5 97.5z" />
<glyph unicode="&#xa2;" horiz-adv-x="1134" d="M106 528q0 232 130.5 390t341.5 184v270h86v-266q160 -3 268 -73.5t108 -168.5q0 -53 -25 -84.5t-69 -31.5q-53 0 -81.5 31t-39.5 98q-12 77 -51.5 115t-109.5 46v-909q202 0 313 150l22 30l39 -20l-10 -27q-47 -122 -141.5 -194t-222.5 -84v-250h-86v248 q-210 11 -341 161.5t-131 384.5zM315 569q0 -179 68 -290t195 -140v897q-109 -23 -186 -151t-77 -316z" />
<glyph unicode="&#xa3;" horiz-adv-x="1388" d="M66 125q0 78 62.5 128t160.5 50q57 0 127 -18q40 149 76 374h-226v91h244l49 239q61 305 174 451.5t287 146.5q109 0 179.5 -44t70.5 -111q0 -51 -34.5 -85t-84.5 -34q-35 0 -60 18t-38.5 44t-26 52t-31.5 44t-45 18q-24 0 -41 -22.5t-37.5 -94t-41.5 -182.5t-54 -309 l-22 -131h368v-91h-387q-57 -250 -137 -421q129 -60 283 -60q241 0 288 156h72q0 -170 -86 -262t-244 -92q-94 0 -175.5 34t-196.5 123q-133 -155 -293 -155q-83 0 -131.5 38.5t-48.5 104.5zM168 133q0 -30 19.5 -47.5t52.5 -17.5q46 0 87 34t64 91q-53 24 -102 24 q-57 0 -89 -22t-32 -62z" />
<glyph unicode="&#xa4;" horiz-adv-x="1298" d="M158 358l137 136q-86 106 -86 260q0 146 86 258l-137 133l98 98l135 -137q109 86 258 86q141 0 260 -84l133 135l99 -98l-137 -135q86 -109 86 -256q0 -144 -84 -260l135 -136l-99 -98l-135 137q-109 -86 -258 -86q-146 0 -258 86l-135 -137zM352 754q0 -128 88 -220 t209 -92q122 0 209.5 91.5t87.5 218.5t-87.5 218t-209.5 91t-209.5 -90.5t-87.5 -216.5z" />
<glyph unicode="&#xa5;" horiz-adv-x="1331" d="M70 1530v47h569v-47q-80 -14 -112.5 -32.5t-32.5 -53.5q0 -29 18 -72l223 -543h8l224 545q12 34 12 60q0 40 -38.5 63t-129.5 33v47h455v-47q-53 -10 -82 -21t-57 -36.5t-48 -63t-49 -106.5l-221 -537h289v-90h-326v-158h326v-90h-326v-342l182 -39v-47h-581v47l184 39 v342h-342v90h342v158h-342v90h303l-274 639q-32 71 -64.5 94t-109.5 31z" />
<glyph unicode="&#xa6;" horiz-adv-x="563" d="M213 -350v792h137v-792h-137zM213 885v792h137v-792h-137z" />
<glyph unicode="&#xa7;" horiz-adv-x="1105" d="M131 -96q0 50 27.5 80t74.5 30q41 0 63.5 -28t49.5 -101q29 -75 69 -109t134 -34q121 0 190.5 60.5t69.5 166.5q0 60 -23 108.5t-62.5 82t-90.5 62t-107 53t-112 49.5t-107 56.5t-90.5 69.5t-62.5 93t-23 123q0 118 67.5 204.5t188.5 126.5q-116 61 -181 141t-65 205 q0 166 119 261.5t326 95.5q166 0 272.5 -58.5t106.5 -150.5q0 -48 -29 -78.5t-74 -30.5q-42 0 -63.5 28.5t-50.5 100.5q-28 70 -67 96.5t-116 26.5q-125 0 -193.5 -56t-68.5 -157q0 -56 23 -102t62 -77.5t89.5 -58.5t106.5 -51t112 -49.5t106.5 -58t89.5 -72.5t62 -98 t23 -129q0 -113 -54.5 -201.5t-150.5 -138.5q92 -57 143.5 -134.5t51.5 -193.5q0 -177 -120.5 -279t-330.5 -102q-169 0 -277 64t-108 164zM293 739q0 -37 11.5 -69t35.5 -57t50 -44.5t66 -39t73 -33.5t81 -33.5t80 -34.5q60 33 94.5 89t34.5 124q0 34 -11 65t-25.5 54 t-45 48.5t-52.5 40.5t-67.5 38t-69.5 34t-77 35q-80 -22 -129 -81.5t-49 -135.5z" />
<glyph unicode="&#xa8;" horiz-adv-x="649" d="M20 1485q0 50 31 81t82 31q52 0 82.5 -31t30.5 -81q0 -47 -31 -80t-82 -33q-50 0 -81.5 33t-31.5 80zM403 1485q0 50 31 81t82 31q52 0 82.5 -31t30.5 -81q0 -47 -31 -80t-82 -33q-50 0 -81.5 33t-31.5 80z" />
<glyph unicode="&#xa9;" horiz-adv-x="1847" d="M111 788q0 164 64.5 313.5t173 258t259.5 173t316 64.5t316 -64.5t259.5 -173t173 -258t64.5 -313.5t-64.5 -313.5t-173 -257.5t-259.5 -172.5t-316 -64.5t-316 64.5t-259.5 172.5t-173 257.5t-64.5 313.5zM217 788q0 -193 93.5 -357.5t256.5 -261.5t357 -97 q145 0 276 57.5t224.5 153.5t148.5 228.5t55 276.5t-55 276.5t-148.5 229t-224.5 154t-276 57.5t-276.5 -57.5t-225.5 -154t-149.5 -229t-55.5 -276.5zM471 788q0 206 127 341t320 135q140 0 251 -82h9l49 78h28v-293h-45q-16 53 -45 102q-73 123 -215 123q-140 0 -212 -101 t-72 -290q0 -192 73 -297t207 -105q132 0 207 109q44 63 61 154h41v-330h-28l-53 94q-61 -50 -121.5 -73t-137.5 -23q-195 0 -319.5 128t-124.5 330z" />
<glyph unicode="&#xaa;" horiz-adv-x="854" d="M119 1028q0 89 84 145.5t282 100.5v119q0 72 -22 102.5t-76 30.5t-87.5 -22.5t-33.5 -59.5q0 -7 2 -23t2 -24q0 -32 -20 -54t-49 -22q-28 0 -45 17.5t-17 45.5q0 44 40 92t104 80q74 41 170 41q58 0 102 -19.5t61 -51.5q11 -23 14 -55.5t3 -118.5v-285q0 -65 10 -88 t39 -23q26 0 55 29l33 -31q-60 -90 -147 -90q-53 0 -85.5 28.5t-41.5 82.5l-9 2q-84 -113 -194 -113q-77 0 -125.5 45.5t-48.5 118.5zM270 1055q0 -42 26.5 -66t72.5 -24q68 0 116 88v161q-122 -26 -168.5 -60.5t-46.5 -98.5z" />
<glyph unicode="&#xab;" horiz-adv-x="892" d="M119 483v39l280 371l25 -10l-135 -379l139 -379l-25 -16zM438 483v39l281 371l24 -10l-135 -379l140 -379l-25 -16z" />
<glyph unicode="&#xac;" horiz-adv-x="1171" d="M172 541v90h840v-330h-105v240h-735z" />
<glyph unicode="&#xad;" horiz-adv-x="952" d="M150 430v172h653v-172h-653z" />
<glyph unicode="&#xae;" horiz-adv-x="1413" d="M137 1032q0 154 76.5 284t208 205.5t285.5 75.5t285 -75.5t207.5 -205.5t76.5 -284t-76.5 -284.5t-207.5 -206.5t-285 -76t-285.5 76t-208 206.5t-76.5 284.5zM211 1032q0 -135 66.5 -251t181 -184.5t248.5 -68.5t248 68.5t179.5 184.5t65.5 251t-65.5 251t-179.5 184.5 t-248 68.5t-248.5 -68.5t-181 -184.5t-66.5 -251zM467 727v25l53 16v547l-53 16v27h242q105 0 169 -46.5t64 -129.5q0 -62 -37.5 -102.5t-105.5 -55.5l139 -256l61 -16v-25h-176l-145 287h-47v-246l74 -16v-25h-238zM631 1057q86 0 137 31t51 98q0 65 -44.5 97t-143.5 32 v-258z" />
<glyph unicode="&#xaf;" horiz-adv-x="628" d="M20 1452v145h588v-145h-588z" />
<glyph unicode="&#xb0;" horiz-adv-x="696" d="M100 1450q0 104 72 177t176 73q103 0 175.5 -73.5t72.5 -176.5q0 -104 -72 -176t-176 -72t-176 72t-72 176zM184 1450q0 -70 47 -117t117 -47q73 0 118.5 46.5t45.5 117.5q0 74 -45.5 121t-118.5 47q-71 0 -117.5 -47.5t-46.5 -120.5z" />
<glyph unicode="&#xb1;" horiz-adv-x="1179" d="M170 217v100h840v-100h-840zM170 864v101h369v368h104v-368h367v-101h-367v-370h-104v370h-369z" />
<glyph unicode="&#xb2;" horiz-adv-x="829" d="M57 930q252 236 356.5 383t104.5 266q0 86 -44.5 137t-117.5 51q-63 0 -123.5 -43t-97.5 -112l-45 28q44 119 133.5 187.5t200.5 68.5q126 0 210.5 -83t84.5 -207q0 -123 -101.5 -253.5t-351.5 -324.5h338q51 51 98 135l50 -10l-107 -346h-39l-24 45h-512z" />
<glyph unicode="&#xb3;" horiz-adv-x="796" d="M70 1024q0 43 24.5 70.5t63.5 27.5q33 0 54 -20.5t32.5 -49.5t23.5 -58t37 -49.5t64 -20.5q70 0 112.5 51.5t42.5 138.5q0 106 -57 169t-150 63q-31 0 -71 -7l-19 60q107 41 169.5 110.5t62.5 145.5q0 53 -31.5 85t-83.5 32q-58 0 -110.5 -35t-81.5 -92l-43 18 q23 104 106 168.5t195 64.5q105 0 171 -57.5t66 -150.5q0 -77 -51.5 -134.5t-130.5 -78.5v-9q111 -11 177.5 -84.5t66.5 -187.5q0 -148 -108 -252t-263 -104q-112 0 -190 54t-78 132z" />
<glyph unicode="&#xb4;" horiz-adv-x="348" d="M20 1315l115 348q33 96 113 96q33 0 56.5 -25t23.5 -63q0 -49 -62 -125l-203 -254z" />
<glyph unicode="&#xb5;" horiz-adv-x="1277" d="M186 -354q0 54 15.5 278t15.5 336v825h195v-690q0 -177 24 -229q36 -86 135 -86q72 0 144 40.5t127 112.5v852h194v-931l140 -50v-24l-308 -100h-14v186l-8 2q-142 -188 -311 -188q-88 0 -149.5 45t-78.5 122l-6 -4q0 -102 42 -312t42 -253q0 -53 -25.5 -81.5 t-72.5 -28.5q-53 0 -77 42.5t-24 135.5z" />
<glyph unicode="&#xb6;" horiz-adv-x="1193" d="M63 1135q0 202 128 322t348 120h534v-51l-160 -35v-1712h-94v1716h-123v-1716h-94v917h-115q-126 0 -224 60.5t-149 159.5t-51 219z" />
<glyph unicode="&#xb7;" horiz-adv-x="577" d="M147 588q0 62 39 102.5t101 40.5q65 0 104 -40t39 -103q0 -59 -39.5 -99t-103.5 -40q-62 0 -101 40.5t-39 98.5z" />
<glyph unicode="&#xb8;" horiz-adv-x="471" d="M20 -477l29 61q61 -35 115 -35q60 0 96.5 30t36.5 77q0 42 -25.5 65t-72.5 23q-52 0 -105 -16l-18 18l123 289h75l-59 -154q107 0 171.5 -56t64.5 -144q0 -91 -74 -149t-197 -58q-105 0 -160 49z" />
<glyph unicode="&#xb9;" horiz-adv-x="718" d="M119 852v49l168 35v739h-166v58q163 34 301 163l49 -10v-950l170 -35v-49h-522z" />
<glyph unicode="&#xba;" horiz-adv-x="905" d="M102 1231q0 158 100 262t251 104t250.5 -104t99.5 -262t-99.5 -262.5t-250.5 -104.5t-251 104.5t-100 262.5zM264 1231q0 -139 49.5 -218t137.5 -79q89 0 139.5 79.5t50.5 219.5q0 138 -49.5 215.5t-138.5 77.5t-139 -78t-50 -217z" />
<glyph unicode="&#xbb;" horiz-adv-x="892" d="M145 125l140 379l-135 379l24 10l281 -371v-39l-285 -374zM465 125l139 379l-135 379l25 10l280 -371v-39l-285 -374z" />
<glyph unicode="&#xbc;" horiz-adv-x="1654" d="M98 655v45l152 31v666h-150v51q145 30 271 147l45 -8v-856l151 -31v-45h-469zM338 0l960 1577h144l-963 -1577h-141zM909 303l461 637l74 -10v-580h110v-117h-110v-159l106 -29v-45h-415v45l143 29v159h-350zM1032 358l4 -8h242v336h-8z" />
<glyph unicode="&#xbd;" horiz-adv-x="1708" d="M98 655v45l152 31v666h-150v51q145 30 271 147l45 -8v-856l151 -31v-45h-469zM276 0l961 1577h143l-962 -1577h-142zM995 72q226 211 320 344t94 239q0 77 -39.5 123.5t-105.5 46.5q-57 0 -111 -38.5t-88 -102.5l-41 27q40 107 120.5 168t180.5 61q114 0 190 -74.5 t76 -185.5t-92 -228.5t-315 -291.5h303q44 41 88 121l45 -9l-96 -311h-35l-23 39h-460z" />
<glyph unicode="&#xbe;" horiz-adv-x="1673" d="M84 813q0 39 21.5 63.5t56.5 24.5q30 0 49 -18.5t29 -44.5t21 -52t33.5 -44.5t57.5 -18.5q62 0 101 46.5t39 123.5q0 96 -51.5 152.5t-135.5 56.5q-33 0 -63 -6l-17 53q96 38 152.5 100.5t56.5 130.5q0 47 -29 76t-75 29q-52 0 -99 -31t-73 -84l-39 19q20 94 94.5 151 t175.5 57q94 0 153.5 -52t59.5 -136q0 -69 -46.5 -120.5t-117.5 -69.5v-9q100 -9 159.5 -75.5t59.5 -169.5q0 -132 -97 -226t-236 -94q-100 0 -170 49t-70 119zM303 0l961 1577h143l-963 -1577h-141zM936 303l461 637l73 -10v-580h111v-117h-111v-159l107 -29v-45h-416v45 l144 29v159h-351zM1059 358l4 -8h242v336h-9z" />
<glyph unicode="&#xbf;" horiz-adv-x="827" d="M84 2q0 168 107 261t307 99l61 3v249h74v-434h-80q-399 0 -399 -196q0 -80 68.5 -151t203.5 -124q160 -62 203 -90t43 -72q0 -38 -26 -54.5t-83 -16.5q-95 0 -183.5 41.5t-153 112t-103.5 168t-39 204.5zM465 973q0 59 37.5 96t97.5 37q59 0 95 -36.5t36 -96.5 q0 -59 -36.5 -96t-96.5 -37q-58 0 -95.5 37t-37.5 96z" />
<glyph unicode="&#xc0;" horiz-adv-x="1523" d="M-49 0v47q66 10 110 23.5t73 28.5t50 43.5t33.5 55.5t30.5 76l397 1112l-53 121l201 111l540 -1446q18 -49 39 -72.5t58.5 -35.5t111.5 -17v-47h-651v47q93 4 138.5 12t59 20t13.5 36q0 27 -23 90l-135 375h-495l-111 -310q-23 -67 -23 -96q0 -53 51.5 -82t159.5 -45v-47 h-575zM424 1878q0 37 26.5 62.5t61.5 25.5q46 0 90 -33l295 -219l-23 -43l-311 90q-76 22 -107.5 50.5t-31.5 66.5zM477 662h436l-215 595h-8z" />
<glyph unicode="&#xc1;" horiz-adv-x="1523" d="M-49 0v47q66 10 110 23.5t73 28.5t50 43.5t33.5 55.5t30.5 76l397 1112l-53 121l201 111l540 -1446q18 -49 39 -72.5t58.5 -35.5t111.5 -17v-47h-651v47q93 4 138.5 12t59 20t13.5 36q0 27 -23 90l-135 375h-495l-111 -310q-23 -67 -23 -96q0 -53 51.5 -82t159.5 -45v-47 h-575zM477 662h436l-215 595h-8zM543 1714l295 219q44 33 90 33q35 0 61.5 -25.5t26.5 -62.5q0 -38 -31.5 -66.5t-107.5 -50.5l-312 -90z" />
<glyph unicode="&#xc2;" horiz-adv-x="1523" d="M-49 0v47q66 10 110 23.5t73 28.5t50 43.5t33.5 55.5t30.5 76l397 1112l-53 121l201 111l540 -1446q18 -49 39 -72.5t58.5 -35.5t111.5 -17v-47h-651v47q93 4 138.5 12t59 20t13.5 36q0 27 -23 90l-135 375h-495l-111 -310q-23 -67 -23 -96q0 -53 51.5 -82t159.5 -45v-47 h-575zM424 1714l192 197q30 30 52 42.5t57 12.5q34 0 58.5 -12.5t54.5 -42.5l190 -197l-39 -35l-264 119l-260 -119zM477 662h436l-215 595h-8z" />
<glyph unicode="&#xc3;" horiz-adv-x="1523" d="M-49 0v47q66 10 110 23.5t73 28.5t50 43.5t33.5 55.5t30.5 76l397 1112l-53 121l201 111l540 -1446q18 -49 39 -72.5t58.5 -35.5t111.5 -17v-47h-651v47q93 4 138.5 12t59 20t13.5 36q0 27 -23 90l-135 375h-495l-111 -310q-23 -67 -23 -96q0 -53 51.5 -82t159.5 -45v-47 h-575zM410 1726q0 103 48.5 168.5t123.5 65.5q47 0 153 -36t152 -36q87 0 102 78h49q0 -106 -48.5 -174t-123.5 -68q-48 0 -151.5 40t-151.5 40q-44 0 -72 -20.5t-32 -57.5h-49zM477 662h436l-215 595h-8z" />
<glyph unicode="&#xc4;" horiz-adv-x="1523" d="M-49 0v47q66 10 110 23.5t73 28.5t50 43.5t33.5 55.5t30.5 76l397 1112l-53 121l201 111l540 -1446q18 -49 39 -72.5t58.5 -35.5t111.5 -17v-47h-651v47q93 4 138.5 12t59 20t13.5 36q0 27 -23 90l-135 375h-495l-111 -310q-23 -67 -23 -96q0 -53 51.5 -82t159.5 -45v-47 h-575zM444 1812q0 50 31 81.5t82 31.5q52 0 82.5 -31.5t30.5 -81.5q0 -47 -31 -79.5t-82 -32.5q-50 0 -81.5 32.5t-31.5 79.5zM477 662h436l-215 595h-8zM827 1812q0 50 31 81.5t82 31.5q52 0 82.5 -31.5t30.5 -81.5q0 -47 -31 -79.5t-82 -32.5q-50 0 -81.5 32.5t-31.5 79.5 z" />
<glyph unicode="&#xc5;" horiz-adv-x="1523" d="M-49 0v47q66 10 110 23.5t73 28.5t50 43.5t33.5 55.5t30.5 76l397 1112l-53 121l201 111l540 -1446q18 -49 39 -72.5t58.5 -35.5t111.5 -17v-47h-651v47q93 4 138.5 12t59 20t13.5 36q0 27 -23 90l-135 375h-495l-111 -310q-23 -67 -23 -96q0 -53 51.5 -82t159.5 -45v-47 h-575zM477 662h436l-215 595h-8zM563 1843q0 61 41.5 102.5t102.5 41.5t102 -41t41 -103q0 -61 -41 -102t-102 -41q-64 0 -104 40.5t-40 102.5zM635 1843q0 -32 20 -51.5t52 -19.5t51.5 19.5t19.5 51.5t-19.5 52t-51.5 20t-52 -20t-20 -52z" />
<glyph unicode="&#xc6;" horiz-adv-x="2107" d="M-45 0v47q111 17 172.5 43t96.5 65t77 119l643 1221l-174 35v47h1159l35 -451h-49q-63 222 -148 369h-587v-661h366q53 112 76 245h49v-573h-49q-18 125 -76 246h-366v-670h577q38 62 72 136t52.5 124.5t47.5 136.5h68l-76 -479h-1130v47l174 39v512h-406l-170 -328 q-43 -79 -43 -123q0 -41 41.5 -62.5t140.5 -37.5v-47h-573zM602 680h361v686h-9z" />
<glyph unicode="&#xc7;" horiz-adv-x="1585" d="M115 778q0 237 95.5 424t266.5 291t387 104q250 0 441 -124h8l100 104h37v-471h-61q-35 103 -84 184q-71 115 -169 166t-237 51q-253 0 -389.5 -185.5t-136.5 -528.5t138 -532t390 -189t385 192q80 112 109 273h55v-537h-49l-94 135q-101 -75 -200.5 -112t-213.5 -41 l-37 -101q107 0 171.5 -56t64.5 -144q0 -91 -74 -149t-197 -58q-104 0 -159 49l28 61q61 -35 115 -35q60 0 96.5 30t36.5 77q0 42 -25.5 65t-72.5 23q-52 0 -105 -16l-18 18l100 236q-315 14 -508.5 233t-193.5 563z" />
<glyph unicode="&#xc8;" horiz-adv-x="1417" d="M100 0v47l174 39v1405l-174 39v47h1139l35 -451h-49q-63 222 -148 369h-588v-623h367q53 112 76 246h49v-573h-49q-18 125 -76 246h-367v-709h578q38 62 72 136t52.5 124.5t47.5 136.5h68l-76 -479h-1131zM453 1878q0 37 26.5 62.5t61.5 25.5q46 0 90 -33l295 -219 l-23 -43l-311 90q-76 22 -107.5 50.5t-31.5 66.5z" />
<glyph unicode="&#xc9;" horiz-adv-x="1417" d="M100 0v47l174 39v1405l-174 39v47h1139l35 -451h-49q-63 222 -148 369h-588v-623h367q53 112 76 246h49v-573h-49q-18 125 -76 246h-367v-709h578q38 62 72 136t52.5 124.5t47.5 136.5h68l-76 -479h-1131zM520 1714l295 219q44 33 90 33q35 0 61.5 -25.5t26.5 -62.5 q0 -38 -31.5 -66.5t-107.5 -50.5l-311 -90z" />
<glyph unicode="&#xca;" horiz-adv-x="1417" d="M100 0v47l174 39v1405l-174 39v47h1139l35 -451h-49q-63 222 -148 369h-588v-623h367q53 112 76 246h49v-573h-49q-18 125 -76 246h-367v-709h578q38 62 72 136t52.5 124.5t47.5 136.5h68l-76 -479h-1131zM444 1714l193 197q31 31 52 43t56 12q34 0 58.5 -12.5 t54.5 -42.5l191 -197l-39 -35l-265 119l-260 -119z" />
<glyph unicode="&#xcb;" horiz-adv-x="1417" d="M100 0v47l174 39v1405l-174 39v47h1139l35 -451h-49q-63 222 -148 369h-588v-623h367q53 112 76 246h49v-573h-49q-18 125 -76 246h-367v-709h578q38 62 72 136t52.5 124.5t47.5 136.5h68l-76 -479h-1131zM426 1812q0 50 31 81.5t82 31.5q52 0 82 -31.5t30 -81.5 q0 -47 -30.5 -79.5t-81.5 -32.5q-50 0 -81.5 32.5t-31.5 79.5zM809 1812q0 50 31 81.5t82 31.5q52 0 82 -31.5t30 -81.5q0 -47 -30.5 -79.5t-81.5 -32.5q-50 0 -81.5 32.5t-31.5 79.5z" />
<glyph unicode="&#xcc;" horiz-adv-x="765" d="M92 0v47l184 39v1405l-184 39v47h582v-47l-182 -39v-1405l182 -39v-47h-582zM150 1878q0 37 26.5 62.5t61.5 25.5q46 0 90 -33l295 -219l-23 -43l-311 90q-76 22 -107.5 50.5t-31.5 66.5z" />
<glyph unicode="&#xcd;" horiz-adv-x="765" d="M92 0v47l184 39v1405l-184 39v47h582v-47l-182 -39v-1405l182 -39v-47h-582zM152 1735l294 219q44 33 91 33q35 0 61.5 -26t26.5 -63t-32 -65.5t-108 -50.5l-311 -90z" />
<glyph unicode="&#xce;" horiz-adv-x="765" d="M84 1716l192 197q30 30 52 42.5t57 12.5q34 0 58.5 -12.5t54.5 -42.5l190 -197l-39 -35l-264 119l-260 -119zM92 0v47l184 39v1405l-184 39v47h582v-47l-182 -39v-1405l182 -39v-47h-582z" />
<glyph unicode="&#xcf;" horiz-adv-x="765" d="M82 1868q0 50 31 81t82 31q52 0 82 -31t30 -81q0 -48 -30.5 -80.5t-81.5 -32.5q-50 0 -81.5 33t-31.5 80zM92 0v47l184 39v1405l-184 39v47h582v-47l-182 -39v-1405l182 -39v-47h-582zM465 1868q0 50 31 81t82 31q52 0 82 -31t30 -81q0 -48 -30.5 -80.5t-81.5 -32.5 q-50 0 -81.5 33t-31.5 80z" />
<glyph unicode="&#xd0;" horiz-adv-x="1660" d="M102 0v47l174 39v659h-161v134h161v612l-174 39v47h510q244 0 390 -34t253 -116q138 -106 213.5 -274t75.5 -369q0 -209 -80 -384t-223 -279q-89 -65 -194.5 -93t-258.5 -28h-686zM492 201q0 -70 45.5 -96.5t167.5 -26.5q150 0 245.5 38.5t169.5 127.5q82 101 125 247 t43 318q0 354 -174 537q-78 81 -183 115t-278 34h-161v-616h251v-134h-251v-544z" />
<glyph unicode="&#xd1;" horiz-adv-x="1695" d="M92 0v47l184 39v1405l-184 39v47h414l844 -1159v1073l-183 39v47h449v-47l-184 -39v-1532h-64l-1010 1407v-1280l183 -39v-47h-449zM559 1726q0 103 48.5 168.5t123.5 65.5q47 0 153 -36t152 -36q88 0 103 78h49q0 -106 -48.5 -174t-123.5 -68q-48 0 -151.5 40t-151.5 40 q-44 0 -72.5 -20.5t-32.5 -57.5h-49z" />
<glyph unicode="&#xd2;" horiz-adv-x="1712" d="M113 788q0 170 57 320.5t155 257.5t236 169t295 62t295 -62t236 -169t155 -257.5t57 -320.5t-57 -320t-155 -257t-236 -169t-295 -62t-295 62t-236 169t-155 257t-57 320zM371 791q0 -337 129 -528t356 -191t356 191.5t129 531.5q0 334 -128 522t-355 188 q-229 0 -358 -189t-129 -525zM610 1878q0 37 26.5 62.5t61.5 25.5q46 0 90 -33l295 -219l-22 -43l-311 90q-76 22 -108 51t-32 66z" />
<glyph unicode="&#xd3;" horiz-adv-x="1712" d="M113 788q0 170 57 320.5t155 257.5t236 169t295 62t295 -62t236 -169t155 -257.5t57 -320.5t-57 -320t-155 -257t-236 -169t-295 -62t-295 62t-236 169t-155 257t-57 320zM371 791q0 -337 129 -528t356 -191t356 191.5t129 531.5q0 334 -128 522t-355 188 q-229 0 -358 -189t-129 -525zM635 1714l295 219q44 33 90 33q35 0 61.5 -25.5t26.5 -62.5q0 -38 -31.5 -66.5t-107.5 -50.5l-312 -90z" />
<glyph unicode="&#xd4;" horiz-adv-x="1712" d="M113 788q0 170 57 320.5t155 257.5t236 169t295 62t295 -62t236 -169t155 -257.5t57 -320.5t-57 -320t-155 -257t-236 -169t-295 -62t-295 62t-236 169t-155 257t-57 320zM371 791q0 -337 129 -528t356 -191t356 191.5t129 531.5q0 334 -128 522t-355 188 q-229 0 -358 -189t-129 -525zM567 1714l193 197q31 31 52 43t56 12q34 0 58.5 -12.5t54.5 -42.5l190 -197l-38 -35l-265 119l-260 -119z" />
<glyph unicode="&#xd5;" horiz-adv-x="1712" d="M113 788q0 170 57 320.5t155 257.5t236 169t295 62t295 -62t236 -169t155 -257.5t57 -320.5t-57 -320t-155 -257t-236 -169t-295 -62t-295 62t-236 169t-155 257t-57 320zM371 791q0 -337 129 -528t356 -191t356 191.5t129 531.5q0 334 -128 522t-355 188 q-229 0 -358 -189t-129 -525zM559 1726q0 103 48.5 168.5t123.5 65.5q47 0 153 -36t152 -36q88 0 103 78h49q0 -106 -48.5 -174t-123.5 -68q-48 0 -151.5 40t-151.5 40q-44 0 -72.5 -20.5t-32.5 -57.5h-49z" />
<glyph unicode="&#xd6;" horiz-adv-x="1712" d="M113 788q0 170 57 320.5t155 257.5t236 169t295 62t295 -62t236 -169t155 -257.5t57 -320.5t-57 -320t-155 -257t-236 -169t-295 -62t-295 62t-236 169t-155 257t-57 320zM371 791q0 -337 129 -528t356 -191t356 191.5t129 531.5q0 334 -128 522t-355 188 q-229 0 -358 -189t-129 -525zM565 1812q0 50 31 81.5t82 31.5q52 0 82.5 -31.5t30.5 -81.5q0 -47 -31 -79.5t-82 -32.5q-50 0 -81.5 32.5t-31.5 79.5zM948 1812q0 50 31 81.5t82 31.5q52 0 82.5 -31.5t30.5 -81.5q0 -47 -31 -79.5t-82 -32.5q-50 0 -81.5 32.5t-31.5 79.5z " />
<glyph unicode="&#xd7;" horiz-adv-x="1005" d="M139 408l289 288l-287 287l76 76l287 -287l287 287l79 -80l-286 -287l284 -284l-75 -76l-285 284l-289 -288z" />
<glyph unicode="&#xd8;" horiz-adv-x="1714" d="M115 788q0 170 57 320.5t155 257.5t236 169t295 62q273 0 475 -180l137 160h115l-190 -221q98 -109 152.5 -255.5t54.5 -312.5q0 -170 -57 -320t-155.5 -257t-236.5 -169t-295 -62q-283 0 -485 186l-144 -166h-112l194 227q-94 109 -145 253t-51 308zM373 791 q0 -247 67 -412l789 917q-130 209 -369 209q-229 0 -358 -189t-129 -525zM481 295q131 -223 377 -223q227 0 356 191.5t129 531.5q0 246 -71 417z" />
<glyph unicode="&#xd9;" horiz-adv-x="1585" d="M68 1530v47h581v-47l-182 -39v-1026q0 -191 102 -292t279 -101q231 0 323 127q41 55 59.5 153.5t18.5 261.5v877l-182 39v47h449v-47l-185 -39v-963q0 -246 -78 -364q-60 -88 -176.5 -136t-271.5 -48q-158 0 -281.5 49.5t-191.5 138.5q-42 56 -61 130.5t-19 197.5v995z M629 1878q0 37 26.5 62.5t61.5 25.5q46 0 90 -33l295 -219l-23 -43l-311 90q-76 22 -107.5 50.5t-31.5 66.5z" />
<glyph unicode="&#xda;" horiz-adv-x="1585" d="M68 1530v47h581v-47l-182 -39v-1026q0 -191 102 -292t279 -101q231 0 323 127q41 55 59.5 153.5t18.5 261.5v877l-182 39v47h449v-47l-185 -39v-963q0 -246 -78 -364q-60 -88 -176.5 -136t-271.5 -48q-158 0 -281.5 49.5t-191.5 138.5q-42 56 -61 130.5t-19 197.5v995z M645 1714l295 219q44 33 90 33q35 0 61.5 -25.5t26.5 -62.5q0 -38 -31.5 -66.5t-107.5 -50.5l-311 -90z" />
<glyph unicode="&#xdb;" horiz-adv-x="1585" d="M68 1530v47h581v-47l-182 -39v-1026q0 -191 102 -292t279 -101q231 0 323 127q41 55 59.5 153.5t18.5 261.5v877l-182 39v47h449v-47l-185 -39v-963q0 -246 -78 -364q-60 -88 -176.5 -136t-271.5 -48q-158 0 -281.5 49.5t-191.5 138.5q-42 56 -61 130.5t-19 197.5v995z M571 1714l193 197q31 31 52 43t56 12q34 0 58.5 -12.5t54.5 -42.5l191 -197l-39 -35l-265 119l-260 -119z" />
<glyph unicode="&#xdc;" horiz-adv-x="1585" d="M68 1530v47h581v-47l-182 -39v-1026q0 -191 102 -292t279 -101q231 0 323 127q41 55 59.5 153.5t18.5 261.5v877l-182 39v47h449v-47l-185 -39v-963q0 -246 -78 -364q-60 -88 -176.5 -136t-271.5 -48q-158 0 -281.5 49.5t-191.5 138.5q-42 56 -61 130.5t-19 197.5v995z M569 1812q0 50 31 81.5t82 31.5q52 0 82.5 -31.5t30.5 -81.5q0 -47 -31 -79.5t-82 -32.5q-50 0 -81.5 32.5t-31.5 79.5zM952 1812q0 50 31 81.5t82 31.5q52 0 82.5 -31.5t30.5 -81.5q0 -47 -31 -79.5t-82 -32.5q-50 0 -81.5 32.5t-31.5 79.5z" />
<glyph unicode="&#xdd;" horiz-adv-x="1452" d="M-16 1530v47h671v-47q-86 -5 -134.5 -15.5t-64.5 -24.5t-16 -36q0 -30 27 -82l338 -604h8l285 539q24 49 24 88q0 58 -54 93t-159 42v47h578v-47q-36 -5 -64.5 -11.5t-52 -15.5t-40 -16t-32.5 -21.5t-25 -23t-21.5 -28.5t-19 -31t-20.5 -38t-22 -42l-361 -670v-547 l183 -39v-47h-582v47l184 39v584l-415 735q-28 49 -47 70t-58 35.5t-110 19.5zM590 1714l295 219q44 33 90 33q35 0 61.5 -25.5t26.5 -62.5q0 -38 -31.5 -66.5t-107.5 -50.5l-312 -90z" />
<glyph unicode="&#xde;" horiz-adv-x="1361" d="M100 0v47l174 39v1405l-174 39v47h623v-47l-234 -39v-248h248q247 0 397 -123.5t150 -345.5q0 -208 -153 -320t-424 -112h-218v-256l234 -39v-47h-623zM489 422h154q124 0 201 27.5t123 82.5q82 97 82 263q0 131 -49.5 218.5t-139.5 123.5q-60 24 -182 24h-189v-739z" />
<glyph unicode="&#xdf;" horiz-adv-x="1421" d="M53 979l25 65h155q0 179 7.5 260.5t29.5 135.5q49 120 175 190t292 70q172 0 271.5 -75t99.5 -204q0 -63 -26 -125t-62.5 -112.5t-73 -99.5t-62.5 -103t-26 -104q0 -47 22 -84.5t58 -61.5t81.5 -48.5t93.5 -44.5t93.5 -50t81.5 -65t58 -89.5t22 -122.5 q0 -152 -102 -241.5t-275 -89.5q-149 0 -282 45l-13 331h49q12 -155 78.5 -235t182.5 -80q94 0 149 50.5t55 135.5q0 58 -28.5 103t-73.5 75.5t-100 57.5t-110 56t-100 64t-73.5 89t-28.5 123q0 63 24.5 127t59 118t69 107.5t59 116.5t24.5 125q0 107 -64.5 172t-169.5 65 q-132 0 -201 -109.5t-69 -318.5v-1128l176 -31v-39h-524v39l153 31v909h-180z" />
<glyph unicode="&#xe0;" horiz-adv-x="1075" d="M100 229q0 134 126.5 215.5t435.5 147.5v201q0 129 -37.5 182t-126.5 53q-88 0 -139.5 -42t-51.5 -114q0 -12 2 -36t2 -35q0 -52 -30 -85.5t-76 -33.5q-42 0 -68 27t-26 71q0 67 60.5 139t160.5 123q125 64 260 64q182 0 237 -109q17 -35 22 -86t5 -182v-469 q0 -101 16 -136.5t60 -35.5q29 0 51.5 13t48.5 46l35 -30q-47 -73 -97 -105t-116 -32q-82 0 -127 45t-55 139l-6 4q-60 -88 -145.5 -138t-174.5 -50q-109 0 -177.5 69.5t-68.5 179.5zM283 272q0 -83 39.5 -127.5t113.5 -44.5q66 0 126 36.5t100 101.5v294 q-217 -43 -298 -98.5t-81 -161.5zM389 1671q0 38 23.5 63t56.5 25q80 0 113 -96l114 -348l-43 -23l-202 254q-62 76 -62 125z" />
<glyph unicode="&#xe1;" horiz-adv-x="1075" d="M100 229q0 134 126.5 215.5t435.5 147.5v201q0 129 -37.5 182t-126.5 53q-88 0 -139.5 -42t-51.5 -114q0 -12 2 -36t2 -35q0 -52 -30 -85.5t-76 -33.5q-42 0 -68 27t-26 71q0 67 60.5 139t160.5 123q125 64 260 64q182 0 237 -109q17 -35 22 -86t5 -182v-469 q0 -101 16 -136.5t60 -35.5q29 0 51.5 13t48.5 46l35 -30q-47 -73 -97 -105t-116 -32q-82 0 -127 45t-55 139l-6 4q-60 -88 -145.5 -138t-174.5 -50q-109 0 -177.5 69.5t-68.5 179.5zM283 272q0 -83 39.5 -127.5t113.5 -44.5q66 0 126 36.5t100 101.5v294 q-217 -43 -298 -98.5t-81 -161.5zM434 1315l115 348q33 96 113 96q33 0 56 -25t23 -63q0 -50 -61 -125l-203 -254z" />
<glyph unicode="&#xe2;" horiz-adv-x="1075" d="M100 229q0 134 126.5 215.5t435.5 147.5v201q0 129 -37.5 182t-126.5 53q-88 0 -139.5 -42t-51.5 -114q0 -12 2 -36t2 -35q0 -52 -30 -85.5t-76 -33.5q-42 0 -68 27t-26 71q0 67 60.5 139t160.5 123q125 64 260 64q182 0 237 -109q17 -35 22 -86t5 -182v-469 q0 -101 16 -136.5t60 -35.5q29 0 51.5 13t48.5 46l35 -30q-47 -73 -97 -105t-116 -32q-82 0 -127 45t-55 139l-6 4q-60 -88 -145.5 -138t-174.5 -50q-109 0 -177.5 69.5t-68.5 179.5zM283 272q0 -83 39.5 -127.5t113.5 -44.5q66 0 126 36.5t100 101.5v294 q-217 -43 -298 -98.5t-81 -161.5zM309 1311l172 385q24 59 94 59q60 0 87 -59l172 -385l-46 -25l-221 289l-217 -289z" />
<glyph unicode="&#xe3;" horiz-adv-x="1075" d="M100 229q0 134 126.5 215.5t435.5 147.5v201q0 129 -37.5 182t-126.5 53q-88 0 -139.5 -42t-51.5 -114q0 -12 2 -36t2 -35q0 -52 -30 -85.5t-76 -33.5q-42 0 -68 27t-26 71q0 67 60.5 139t160.5 123q125 64 260 64q182 0 237 -109q17 -35 22 -86t5 -182v-469 q0 -101 16 -136.5t60 -35.5q29 0 51.5 13t48.5 46l35 -30q-47 -73 -97 -105t-116 -32q-82 0 -127 45t-55 139l-6 4q-60 -88 -145.5 -138t-174.5 -50q-109 0 -177.5 69.5t-68.5 179.5zM227 1399q0 102 48.5 167.5t123.5 65.5q47 0 153.5 -35.5t152.5 -35.5q87 0 102 77h49 q0 -106 -48.5 -173.5t-123.5 -67.5q-48 0 -151.5 40t-151.5 40q-44 0 -72.5 -20.5t-32.5 -57.5h-49zM283 272q0 -83 39.5 -127.5t113.5 -44.5q66 0 126 36.5t100 101.5v294q-217 -43 -298 -98.5t-81 -161.5z" />
<glyph unicode="&#xe4;" horiz-adv-x="1075" d="M100 229q0 134 126.5 215.5t435.5 147.5v201q0 129 -37.5 182t-126.5 53q-88 0 -139.5 -42t-51.5 -114q0 -12 2 -36t2 -35q0 -52 -30 -85.5t-76 -33.5q-42 0 -68 27t-26 71q0 67 60.5 139t160.5 123q125 64 260 64q182 0 237 -109q17 -35 22 -86t5 -182v-469 q0 -101 16 -136.5t60 -35.5q29 0 51.5 13t48.5 46l35 -30q-47 -73 -97 -105t-116 -32q-82 0 -127 45t-55 139l-6 4q-60 -88 -145.5 -138t-174.5 -50q-109 0 -177.5 69.5t-68.5 179.5zM238 1485q0 50 30.5 81t81.5 31q52 0 82.5 -31t30.5 -81q0 -47 -31 -80t-82 -33 q-50 0 -81 33t-31 80zM283 272q0 -83 39.5 -127.5t113.5 -44.5q66 0 126 36.5t100 101.5v294q-217 -43 -298 -98.5t-81 -161.5zM621 1485q0 50 30.5 81t81.5 31q52 0 82.5 -31t30.5 -81q0 -47 -31 -80t-82 -33q-50 0 -81 33t-31 80z" />
<glyph unicode="&#xe5;" horiz-adv-x="1075" d="M100 229q0 134 126.5 215.5t435.5 147.5v201q0 129 -37.5 182t-126.5 53q-88 0 -139.5 -42t-51.5 -114q0 -12 2 -36t2 -35q0 -52 -30 -85.5t-76 -33.5q-42 0 -68 27t-26 71q0 67 60.5 139t160.5 123q125 64 260 64q182 0 237 -109q17 -35 22 -86t5 -182v-469 q0 -101 16 -136.5t60 -35.5q29 0 51.5 13t48.5 46l35 -30q-47 -73 -97 -105t-116 -32q-82 0 -127 45t-55 139l-6 4q-60 -88 -145.5 -138t-174.5 -50q-109 0 -177.5 69.5t-68.5 179.5zM283 272q0 -83 39.5 -127.5t113.5 -44.5q66 0 126 36.5t100 101.5v294 q-217 -43 -298 -98.5t-81 -161.5zM389 1503q0 72 49 121t121 49t121 -49t49 -121t-49 -121t-121 -49q-75 0 -122.5 48.5t-47.5 121.5zM461 1503q0 -44 27 -71t71 -27t71 27t27 71t-27 71.5t-71 27.5t-71 -27.5t-27 -71.5z" />
<glyph unicode="&#xe6;" horiz-adv-x="1712" d="M100 227q0 135 126 217t436 148v201q0 129 -37.5 182t-126.5 53q-88 0 -139.5 -42t-51.5 -114q0 -12 2 -36t2 -35q0 -52 -30 -85.5t-76 -33.5q-42 0 -68 27t-26 71q0 67 60.5 139t160.5 123q125 64 260 64q199 0 248 -135q148 135 368 135q201 0 308.5 -118t111.5 -345 l-14 -12h-748q0 -260 85 -381t268 -121q100 0 187.5 36.5t139.5 100.5l25 31l35 -21l-13 -28q-54 -125 -171.5 -196.5t-268.5 -71.5q-140 0 -249 63t-171 178h-8q-72 -112 -175.5 -176.5t-201.5 -64.5q-109 0 -178.5 69t-69.5 178zM283 272q0 -82 39.5 -127t111.5 -45 q70 0 145 50.5t126 132.5q-43 107 -43 249q-217 -43 -298 -98.5t-81 -161.5zM870 688l537 19q6 21 6 81q0 254 -223 254q-135 0 -217.5 -91.5t-102.5 -262.5z" />
<glyph unicode="&#xe7;" horiz-adv-x="1095" d="M94 528q0 254 153 416t392 162q155 0 262 -71.5t107 -170.5q0 -53 -25.5 -84.5t-69.5 -31.5q-54 0 -83 31.5t-37 97.5q-12 98 -44 130.5t-104 32.5q-161 0 -251.5 -127t-90.5 -344q0 -209 92.5 -324.5t259.5 -115.5q94 0 174.5 38t135.5 112l22 30l39 -20l-10 -27 q-49 -126 -148.5 -198.5t-234.5 -81.5l-39 -101q107 0 171 -56t64 -144q0 -91 -73.5 -149t-196.5 -58q-105 0 -160 49l29 61q61 -35 115 -35q60 0 96.5 30t36.5 77q0 42 -25.5 65t-72.5 23q-52 0 -105 -16l-18 18l100 236q-205 14 -333 164.5t-128 381.5z" />
<glyph unicode="&#xe8;" horiz-adv-x="1146" d="M96 526q0 258 151.5 419t395.5 161q201 0 308.5 -118t111.5 -345l-14 -12h-748v-47q0 -224 89.5 -339.5t264.5 -115.5q100 0 186 36t140 101l25 31l34 -21l-12 -28q-54 -125 -171.5 -196.5t-268.5 -71.5q-220 0 -356 151t-136 395zM305 688l537 19q6 24 6 84 q0 251 -223 251q-135 0 -217.5 -91.5t-102.5 -262.5zM414 1671q0 38 23.5 63t56.5 25q79 0 112 -96l115 -348l-43 -23l-203 254q-61 75 -61 125z" />
<glyph unicode="&#xe9;" horiz-adv-x="1146" d="M96 526q0 258 151.5 419t395.5 161q201 0 308.5 -118t111.5 -345l-14 -12h-748v-47q0 -224 89.5 -339.5t264.5 -115.5q100 0 186 36t140 101l25 31l34 -21l-12 -28q-54 -125 -171.5 -196.5t-268.5 -71.5q-220 0 -356 151t-136 395zM305 688l537 19q6 24 6 84 q0 251 -223 251q-135 0 -217.5 -91.5t-102.5 -262.5zM502 1315l114 348q33 96 113 96q33 0 56.5 -25t23.5 -63q0 -50 -61 -125l-203 -254z" />
<glyph unicode="&#xea;" horiz-adv-x="1146" d="M96 526q0 258 151.5 419t395.5 161q201 0 308.5 -118t111.5 -345l-14 -12h-748v-47q0 -224 89.5 -339.5t264.5 -115.5q100 0 186 36t140 101l25 31l34 -21l-12 -28q-54 -125 -171.5 -196.5t-268.5 -71.5q-220 0 -356 151t-136 395zM305 688l537 19q6 24 6 84 q0 251 -223 251q-135 0 -217.5 -91.5t-102.5 -262.5zM391 1311l172 385q24 59 94 59q59 0 86 -59l172 -385l-45 -25l-221 289l-217 -289z" />
<glyph unicode="&#xeb;" horiz-adv-x="1146" d="M96 526q0 258 151.5 419t395.5 161q201 0 308.5 -118t111.5 -345l-14 -12h-748v-47q0 -224 89.5 -339.5t264.5 -115.5q100 0 186 36t140 101l25 31l34 -21l-12 -28q-54 -125 -171.5 -196.5t-268.5 -71.5q-220 0 -356 151t-136 395zM305 688l537 19q6 24 6 84 q0 251 -223 251q-135 0 -217.5 -91.5t-102.5 -262.5zM334 1485q0 50 30.5 81t81.5 31q52 0 82.5 -31t30.5 -81q0 -47 -31 -80t-82 -33q-50 0 -81 33t-31 80zM717 1485q0 50 30.5 81t81.5 31q52 0 82.5 -31t30.5 -81q0 -47 -31 -80t-82 -33q-50 0 -81 33t-31 80z" />
<glyph unicode="&#xec;" horiz-adv-x="614" d="M63 0v41l156 31v852l-151 55v29l327 98h19v-1034l153 -31v-41h-504zM96 1671q0 38 23.5 63t56.5 25q80 0 113 -96l114 -348l-43 -23l-202 254q-62 76 -62 125z" />
<glyph unicode="&#xed;" horiz-adv-x="614" d="M63 0v41l156 31v852l-151 55v29l327 98h19v-1034l153 -31v-41h-504zM172 1315l115 348q33 96 112 96q33 0 56.5 -25t23.5 -63q0 -50 -61 -125l-203 -254z" />
<glyph unicode="&#xee;" horiz-adv-x="614" d="M53 1311l172 385q24 59 94 59q60 0 87 -59l172 -385l-46 -25l-221 289l-217 -289zM63 0v41l156 31v852l-151 55v29l327 98h19v-1034l153 -31v-41h-504z" />
<glyph unicode="&#xef;" horiz-adv-x="614" d="M12 1485q0 50 31 81t82 31q52 0 82.5 -31t30.5 -81q0 -47 -31 -80t-82 -33q-50 0 -81.5 33t-31.5 80zM63 0v41l156 31v852l-151 55v29l327 98h19v-1034l153 -31v-41h-504zM395 1485q0 50 31 81t82 31q52 0 82.5 -31t30.5 -81q0 -47 -31 -80t-82 -33q-50 0 -81.5 33 t-31.5 80z" />
<glyph unicode="&#xf0;" horiz-adv-x="1208" d="M98 465q0 132 60.5 243.5t165.5 176.5t229 65q85 0 171 -31t126 -75q-17 101 -83.5 217.5t-164.5 222.5l-225 -145l-60 94l203 131q-111 102 -231 162l37 71q166 -61 305 -161l213 139l61 -94l-182 -117q180 -157 282.5 -365.5t102.5 -427.5q0 -262 -146.5 -426.5 t-379.5 -164.5q-211 0 -347.5 137t-136.5 348zM342 432q0 -165 65.5 -262.5t176.5 -97.5q128 0 211.5 121t83.5 305q0 116 -25 225q-36 51 -98 81t-127 30q-128 0 -207.5 -111t-79.5 -291z" />
<glyph unicode="&#xf1;" horiz-adv-x="1251" d="M63 0v41l156 31v850l-151 57v27l317 100h21v-174q88 84 187.5 129t197.5 45q81 0 144.5 -33t92.5 -90q17 -32 22 -87t5 -204v-622l153 -29v-41h-501v41l153 29v602q0 167 -24 227q-40 94 -160 94q-154 0 -262 -127v-794l153 -31v-41h-504zM346 1399q0 102 48.5 167.5 t123.5 65.5q47 0 153 -35.5t152 -35.5q88 0 103 77h49q0 -106 -48.5 -173.5t-123.5 -67.5q-48 0 -151.5 40t-151.5 40q-44 0 -72.5 -20.5t-32.5 -57.5h-49z" />
<glyph unicode="&#xf2;" horiz-adv-x="1261" d="M92 543q0 243 153.5 403t385.5 160q152 0 275.5 -72.5t193 -201.5t69.5 -289t-69.5 -289t-193 -201.5t-275.5 -72.5q-232 0 -385.5 160t-153.5 403zM309 543q0 -221 85 -346t235 -125q151 0 237 126t86 347q0 220 -85 344.5t-236 124.5t-236.5 -125t-85.5 -346zM416 1671 q0 38 23.5 63t56.5 25q79 0 112 -96l115 -348l-43 -23l-203 254q-61 75 -61 125z" />
<glyph unicode="&#xf3;" horiz-adv-x="1261" d="M92 543q0 243 153.5 403t385.5 160q152 0 275.5 -72.5t193 -201.5t69.5 -289t-69.5 -289t-193 -201.5t-275.5 -72.5q-232 0 -385.5 160t-153.5 403zM309 543q0 -221 85 -346t235 -125q151 0 237 126t86 347q0 220 -85 344.5t-236 124.5t-236.5 -125t-85.5 -346zM561 1315 l115 348q33 96 112 96q33 0 56.5 -25t23.5 -63q0 -50 -61 -125l-203 -254z" />
<glyph unicode="&#xf4;" horiz-adv-x="1261" d="M92 543q0 243 153.5 403t385.5 160q152 0 275.5 -72.5t193 -201.5t69.5 -289t-69.5 -289t-193 -201.5t-275.5 -72.5q-232 0 -385.5 160t-153.5 403zM309 543q0 -221 85 -346t235 -125q151 0 237 126t86 347q0 220 -85 344.5t-236 124.5t-236.5 -125t-85.5 -346zM391 1311 l172 385q24 59 94 59q59 0 86 -59l172 -385l-45 -25l-221 289l-217 -289z" />
<glyph unicode="&#xf5;" horiz-adv-x="1261" d="M92 543q0 243 153.5 403t385.5 160q152 0 275.5 -72.5t193 -201.5t69.5 -289t-69.5 -289t-193 -201.5t-275.5 -72.5q-232 0 -385.5 160t-153.5 403zM309 543q0 -221 85 -346t235 -125q151 0 237 126t86 347q0 220 -85 344.5t-236 124.5t-236.5 -125t-85.5 -346zM336 1399 q0 102 48.5 167.5t123.5 65.5q47 0 153 -35.5t152 -35.5q87 0 102 77h50q0 -106 -48.5 -173.5t-123.5 -67.5q-48 0 -152 40t-152 40q-44 0 -72 -20.5t-32 -57.5h-49z" />
<glyph unicode="&#xf6;" horiz-adv-x="1261" d="M92 543q0 243 153.5 403t385.5 160q152 0 275.5 -72.5t193 -201.5t69.5 -289t-69.5 -289t-193 -201.5t-275.5 -72.5q-232 0 -385.5 160t-153.5 403zM309 543q0 -221 85 -346t235 -125q151 0 237 126t86 347q0 220 -85 344.5t-236 124.5t-236.5 -125t-85.5 -346zM330 1485 q0 50 30.5 81t81.5 31q52 0 82.5 -31t30.5 -81q0 -47 -31 -80t-82 -33q-50 0 -81 33t-31 80zM713 1485q0 50 30.5 81t81.5 31q52 0 82.5 -31t30.5 -81q0 -47 -31 -80t-82 -33q-50 0 -81 33t-31 80z" />
<glyph unicode="&#xf7;" horiz-adv-x="1075" d="M117 645v100h839v-100h-839zM379 348q0 62 38.5 103t100.5 41q65 0 104.5 -40.5t39.5 -103.5q0 -59 -40 -99t-104 -40q-62 0 -100.5 40.5t-38.5 98.5zM379 1051q0 62 38.5 102.5t100.5 40.5q65 0 104.5 -40.5t39.5 -102.5q0 -59 -40 -99.5t-104 -40.5q-62 0 -100.5 40.5 t-38.5 99.5z" />
<glyph unicode="&#xf8;" horiz-adv-x="1290" d="M72 0l159 166q-129 154 -129 377q0 243 153.5 403t385.5 160q215 0 363 -139l114 118h125l-178 -184q115 -153 115 -358q0 -243 -153.5 -403t-385.5 -160q-204 0 -348 122l-98 -102h-123zM319 543q0 -147 37 -248l541 561q-87 158 -256 158q-151 0 -236.5 -125 t-85.5 -346zM395 209q84 -137 244 -137q151 0 237.5 126t86.5 347q0 117 -29 219z" />
<glyph unicode="&#xf9;" horiz-adv-x="1224" d="M45 1044v41h348v-690q0 -172 25 -229q15 -35 53 -55.5t90 -20.5q71 0 139 37t123 106v781l-153 30v41h348v-931l139 -50v-24l-307 -100h-14v186l-9 2q-73 -91 -168 -139.5t-198 -48.5q-83 0 -144 32t-90 92q-17 37 -22.5 93.5t-5.5 197.5v619zM365 1671q0 38 23 63t56 25 q80 0 113 -96l115 -348l-43 -23l-203 254q-61 75 -61 125z" />
<glyph unicode="&#xfa;" horiz-adv-x="1224" d="M45 1044v41h348v-690q0 -172 25 -229q15 -35 53 -55.5t90 -20.5q71 0 139 37t123 106v781l-153 30v41h348v-931l139 -50v-24l-307 -100h-14v186l-9 2q-73 -91 -168 -139.5t-198 -48.5q-83 0 -144 32t-90 92q-17 37 -22.5 93.5t-5.5 197.5v619zM477 1315l115 348 q33 96 113 96q33 0 56 -25t23 -63q0 -50 -61 -125l-203 -254z" />
<glyph unicode="&#xfb;" horiz-adv-x="1224" d="M45 1044v41h348v-690q0 -172 25 -229q15 -35 53 -55.5t90 -20.5q71 0 139 37t123 106v781l-153 30v41h348v-931l139 -50v-24l-307 -100h-14v186l-9 2q-73 -91 -168 -139.5t-198 -48.5q-83 0 -144 32t-90 92q-17 37 -22.5 93.5t-5.5 197.5v619zM362 1311l173 385 q24 59 94 59q59 0 86 -59l172 -385l-45 -25l-221 289l-218 -289z" />
<glyph unicode="&#xfc;" horiz-adv-x="1224" d="M45 1044v41h348v-690q0 -172 25 -229q15 -35 53 -55.5t90 -20.5q71 0 139 37t123 106v781l-153 30v41h348v-931l139 -50v-24l-307 -100h-14v186l-9 2q-73 -91 -168 -139.5t-198 -48.5q-83 0 -144 32t-90 92q-17 37 -22.5 93.5t-5.5 197.5v619zM311 1485q0 50 31 81t82 31 q52 0 82.5 -31t30.5 -81q0 -47 -31 -80t-82 -33q-50 0 -81.5 33t-31.5 80zM694 1485q0 50 31 81t82 31q52 0 82.5 -31t30.5 -81q0 -47 -31 -80t-82 -33q-50 0 -81.5 33t-31.5 80z" />
<glyph unicode="&#xfd;" horiz-adv-x="1171" d="M18 1044v41h506v-41q-82 -5 -108.5 -12.5t-26.5 -27.5q0 -16 17 -62l249 -647h11l192 588q14 41 14 73q0 80 -157 88v41h461v-41q-118 -20 -160 -50t-70 -113l-399 -1170q-40 -118 -96 -174q-63 -69 -175 -69q-75 0 -121 37.5t-46 99.5q0 48 31 77t83 29q40 0 62.5 -22 t31.5 -72q4 -38 12 -49.5t29 -11.5q34 0 62 39.5t59 130.5l84 258l-399 979q-19 38 -52 56.5t-94 24.5zM621 1315l114 348q33 96 113 96q33 0 56.5 -25t23.5 -63q0 -49 -62 -125l-202 -254z" />
<glyph unicode="&#xfe;" horiz-adv-x="1234" d="M25 -473l153 31v1960l-149 55v26l325 101h21v-733q127 139 315 139q201 0 325 -146t124 -382q0 -268 -159 -433t-419 -165q-104 0 -196 30v-452l202 -31v-39h-542v39zM375 242q0 -90 56.5 -145.5t148.5 -55.5q151 0 245.5 139t94.5 359q0 211 -86 333.5t-232 122.5 q-141 0 -227 -106v-647z" />
<glyph unicode="&#xff;" horiz-adv-x="1171" d="M18 1044v41h506v-41q-82 -5 -108.5 -12.5t-26.5 -27.5q0 -16 17 -62l249 -647h11l192 588q14 41 14 73q0 80 -157 88v41h461v-41q-118 -20 -160 -50t-70 -113l-399 -1170q-40 -118 -96 -174q-63 -69 -175 -69q-75 0 -121 37.5t-46 99.5q0 48 31 77t83 29q40 0 62.5 -22 t31.5 -72q4 -38 12 -49.5t29 -11.5q34 0 62 39.5t59 130.5l84 258l-399 979q-19 38 -52 56.5t-94 24.5zM358 1485q0 50 31 81t82 31q52 0 82.5 -31t30.5 -81q0 -47 -31 -80t-82 -33q-50 0 -81.5 33t-31.5 80zM741 1485q0 50 31 81t82 31q52 0 82.5 -31t30.5 -81 q0 -47 -31 -80t-82 -33q-50 0 -81.5 33t-31.5 80z" />
<glyph unicode="&#x152;" horiz-adv-x="2347" d="M113 788q0 232 97.5 417t271.5 288.5t392 103.5q88 0 201 -20h1094l35 -451h-50q-64 226 -147 369h-588v-623h367q53 112 76 246h49v-573h-49q-18 125 -76 246h-367v-709h578q38 62 72 136t52.5 124.5t47.5 136.5h67l-75 -479h-1076q-117 -20 -211 -20q-164 0 -305 60.5 t-241.5 166.5t-157.5 256.5t-57 324.5zM371 791q0 -342 130 -530.5t365 -188.5q99 0 188 32.5t150 92.5v1175q-130 133 -336 133q-238 0 -367.5 -186.5t-129.5 -527.5z" />
<glyph unicode="&#x153;" horiz-adv-x="2015" d="M92 543q0 243 153.5 403t385.5 160q136 0 249.5 -59t186.5 -164q71 106 186 164.5t258 58.5q201 0 308.5 -118t111.5 -345l-14 -12h-748v-47q0 -224 90 -339.5t265 -115.5q100 0 185.5 36t139.5 101l25 31l35 -21l-13 -28q-54 -125 -171.5 -196.5t-268.5 -71.5 q-129 0 -231.5 54t-167.5 152q-73 -98 -183.5 -152t-242.5 -54q-232 0 -385.5 160t-153.5 403zM309 543q0 -221 85 -346t235 -125q151 0 237 126t86 347q0 220 -85 344.5t-236 124.5t-236.5 -125t-85.5 -346zM1174 688l536 19q6 24 6 84q0 251 -223 251q-135 0 -217 -91.5 t-102 -262.5z" />
<glyph unicode="&#x178;" horiz-adv-x="1452" d="M-16 1530v47h671v-47q-86 -5 -134.5 -15.5t-64.5 -24.5t-16 -36q0 -30 27 -82l338 -604h8l285 539q24 49 24 88q0 58 -54 93t-159 42v47h578v-47q-36 -5 -64.5 -11.5t-52 -15.5t-40 -16t-32.5 -21.5t-25 -23t-21.5 -28.5t-19 -31t-20.5 -38t-22 -42l-361 -670v-547 l183 -39v-47h-582v47l184 39v584l-415 735q-28 49 -47 70t-58 35.5t-110 19.5zM500 1812q0 50 30.5 81.5t81.5 31.5q52 0 82.5 -31.5t30.5 -81.5q0 -47 -31 -79.5t-82 -32.5q-50 0 -81 32.5t-31 79.5zM883 1812q0 50 30.5 81.5t81.5 31.5q52 0 82.5 -31.5t30.5 -81.5 q0 -47 -31 -79.5t-82 -32.5q-50 0 -81 32.5t-31 79.5z" />
<glyph unicode="&#x2c6;" horiz-adv-x="565" d="M20 1311l173 385q24 59 94 59q59 0 86 -59l172 -385l-45 -25l-221 289l-218 -289z" />
<glyph unicode="&#x2dc;" horiz-adv-x="669" d="M20 1399q0 102 49 167.5t124 65.5q47 0 153 -35.5t152 -35.5q87 0 102 77h49q0 -106 -48.5 -173.5t-123.5 -67.5q-48 0 -151.5 40t-151.5 40q-44 0 -72 -20.5t-32 -57.5h-50z" />
<glyph unicode="&#x2000;" horiz-adv-x="993" />
<glyph unicode="&#x2001;" horiz-adv-x="1987" />
<glyph unicode="&#x2002;" horiz-adv-x="993" />
<glyph unicode="&#x2003;" horiz-adv-x="1987" />
<glyph unicode="&#x2004;" horiz-adv-x="662" />
<glyph unicode="&#x2005;" horiz-adv-x="496" />
<glyph unicode="&#x2006;" horiz-adv-x="331" />
<glyph unicode="&#x2007;" horiz-adv-x="331" />
<glyph unicode="&#x2008;" horiz-adv-x="248" />
<glyph unicode="&#x2009;" horiz-adv-x="397" />
<glyph unicode="&#x200a;" horiz-adv-x="110" />
<glyph unicode="&#x2010;" horiz-adv-x="952" d="M150 430v172h653v-172h-653z" />
<glyph unicode="&#x2011;" horiz-adv-x="952" d="M150 430v172h653v-172h-653z" />
<glyph unicode="&#x2012;" horiz-adv-x="952" d="M150 430v172h653v-172h-653z" />
<glyph unicode="&#x2013;" horiz-adv-x="1542" d="M158 453v125h1226v-125h-1226z" />
<glyph unicode="&#x2014;" horiz-adv-x="2199" d="M158 455v123h1884v-123h-1884z" />
<glyph unicode="&#x2018;" horiz-adv-x="501" d="M109 1303q0 241 215 397l41 -60q-57 -42 -92 -91.5t-35 -84.5q0 -32 24 -54t52.5 -34t52.5 -40t24 -70q0 -59 -39.5 -98.5t-97.5 -39.5q-64 0 -104.5 51t-40.5 124z" />
<glyph unicode="&#x2019;" horiz-adv-x="495" d="M115 1563q0 59 39.5 98t97.5 39q64 0 104.5 -50.5t40.5 -123.5q0 -242 -215 -398l-41 60q57 42 92 91.5t35 84.5q0 26 -16 45t-38 31t-44.5 26t-38.5 38t-16 59z" />
<glyph unicode="&#x201a;" horiz-adv-x="538" d="M127 125q0 59 39.5 98t97.5 39q64 0 105 -51t41 -123q0 -241 -215 -397l-41 59q57 42 92 91.5t35 84.5q0 26 -16 45t-38.5 31t-45 26t-38.5 38t-16 59z" />
<glyph unicode="&#x201c;" horiz-adv-x="894" d="M109 1303q0 241 215 397l41 -60q-57 -42 -92 -91.5t-35 -84.5q0 -32 24 -54t52.5 -34t52.5 -40t24 -70q0 -59 -39.5 -98.5t-97.5 -39.5q-64 0 -104.5 51t-40.5 124zM502 1303q0 241 215 397l41 -60q-57 -42 -92 -91.5t-35 -84.5q0 -32 24 -54t52.5 -34t52.5 -40t24 -70 q0 -59 -39.5 -98.5t-97.5 -39.5q-64 0 -104.5 51t-40.5 124z" />
<glyph unicode="&#x201d;" horiz-adv-x="888" d="M115 1563q0 59 39.5 98t97.5 39q64 0 104.5 -50.5t40.5 -123.5q0 -242 -215 -398l-41 60q57 42 92 91.5t35 84.5q0 26 -16 45t-38 31t-44.5 26t-38.5 38t-16 59zM508 1563q0 59 39 98t98 39q64 0 105 -51t41 -123q0 -242 -216 -398l-40 60q57 42 92 91.5t35 84.5 q0 26 -16 45t-38.5 31t-45 26t-38.5 38t-16 59z" />
<glyph unicode="&#x201e;" horiz-adv-x="931" d="M127 125q0 59 39.5 98t97.5 39q64 0 105 -51t41 -123q0 -241 -215 -397l-41 59q57 42 92 91.5t35 84.5q0 26 -16 45t-38.5 31t-45 26t-38.5 38t-16 59zM520 125q0 59 39 98t98 39q64 0 105 -51t41 -123q0 -241 -215 -397l-41 59q57 42 92 91.5t35 84.5q0 26 -16 45 t-38.5 31t-45 26t-38.5 38t-16 59z" />
<glyph unicode="&#x2022;" horiz-adv-x="839" d="M174 766q0 97 72.5 166t173.5 69t173.5 -69t72.5 -166t-72.5 -166.5t-173.5 -69.5t-173.5 69.5t-72.5 166.5z" />
<glyph unicode="&#x2026;" horiz-adv-x="1683" d="M127 119q0 62 38.5 102.5t100.5 40.5q65 0 104.5 -40.5t39.5 -102.5q0 -59 -40 -99t-104 -40q-62 0 -100.5 40.5t-38.5 98.5zM700 119q0 62 39 102.5t101 40.5q65 0 104 -40t39 -103q0 -59 -39.5 -99t-103.5 -40q-62 0 -101 40.5t-39 98.5zM1274 119q0 62 38.5 102.5 t100.5 40.5q65 0 104 -40t39 -103q0 -59 -39.5 -99t-103.5 -40q-62 0 -100.5 40.5t-38.5 98.5z" />
<glyph unicode="&#x202f;" horiz-adv-x="397" />
<glyph unicode="&#x2039;" horiz-adv-x="573" d="M119 483v39l280 371l25 -10l-135 -379l139 -379l-25 -16z" />
<glyph unicode="&#x203a;" horiz-adv-x="573" d="M145 125l140 379l-135 379l24 10l281 -371v-39l-285 -374z" />
<glyph unicode="&#x205f;" horiz-adv-x="496" />
<glyph unicode="&#x2070;" horiz-adv-x="905" d="M94 1362q0 148 47 271t129 193t181 70t182 -70.5t130.5 -193.5t47.5 -270q0 -221 -104 -372.5t-256 -151.5t-254.5 150.5t-102.5 373.5zM309 1364q0 -180 15 -276.5t44 -132t83 -35.5t84 36t44.5 132t14.5 276q0 178 -15 277t-45 137.5t-83 38.5t-83 -38.5t-44.5 -137 t-14.5 -277.5z" />
<glyph unicode="&#x2074;" horiz-adv-x="831" d="M29 1188l512 708l82 -12v-643h125v-131h-125v-178l118 -31v-49h-460v49l159 31v178h-391zM162 1249l4 -8h274v367h-8z" />
<glyph unicode="&#x2075;" horiz-adv-x="782" d="M59 1012q0 44 24 72t62 28q33 0 52.5 -19.5t30 -47t22 -55t37.5 -47t67 -19.5q79 0 132 57.5t53 144.5q0 89 -61 146t-156 57q-77 0 -138 -37l-43 2l76 572h369q1 0 3.5 2t3.5 3t4 5t6 10.5t8.5 18t13.5 28.5l41 -22l-56 -230h-336l-26 -174q40 15 110 15 q152 0 246 -85.5t94 -224.5q0 -161 -110 -267.5t-273 -106.5q-110 0 -183 49.5t-73 124.5z" />
<glyph unicode="&#x2076;" horiz-adv-x="843" d="M88 1217q0 221 142 405.5t378 269.5l25 -53q-114 -60 -212.5 -188.5t-111.5 -235.5q25 32 72 51t104 19q128 0 211.5 -90.5t83.5 -227.5q0 -146 -97.5 -237.5t-252.5 -91.5q-160 0 -251 101t-91 278zM291 1169q0 -115 40 -182t109 -67q65 0 103.5 60.5t38.5 164.5 q0 110 -41.5 174.5t-110.5 64.5q-83 0 -125 -73q-14 -55 -14 -142z" />
<glyph unicode="&#x2077;" horiz-adv-x="735" d="M45 1595l111 332l45 -10q0 -36 6 -51h477l18 -37q-132 -291 -184.5 -425t-165.5 -474q-31 -92 -98 -92q-39 0 -62.5 22.5t-23.5 59.5q0 51 53 151l326 610h-379q-36 -33 -80 -108z" />
<glyph unicode="&#x2078;" horiz-adv-x="866" d="M92 1114q0 157 201 244q-164 107 -164 266q0 124 85 198t222 74q130 0 211.5 -64t81.5 -167q0 -147 -174 -221q116 -65 168.5 -134.5t52.5 -158.5q0 -136 -99.5 -224.5t-252.5 -88.5q-152 0 -242 77t-90 199zM260 1128q0 -99 47.5 -153.5t134.5 -54.5q78 0 125 42.5 t47 112.5q0 72 -61 130.5t-195 113.5q-98 -54 -98 -191zM285 1686q0 -60 46 -107.5t150 -97.5q99 79 99 184q0 70 -41.5 111t-110.5 41q-66 0 -104.5 -35t-38.5 -96z" />
<glyph unicode="&#x2079;" horiz-adv-x="841" d="M63 1563q0 147 96.5 238t252.5 91q160 0 251 -100.5t91 -275.5q0 -223 -142.5 -408t-378.5 -270l-24 55q114 61 212.5 193.5t113.5 242.5q-26 -32 -74 -50.5t-105 -18.5q-127 0 -210 86t-83 217zM262 1585q0 -103 41 -163t111 -60q37 0 70 19t53 53q16 56 16 129 q0 115 -41 182t-109 67q-66 0 -103.5 -61t-37.5 -166z" />
<glyph unicode="&#x2080;" horiz-adv-x="905" d="M94 195q0 148 47 271t129 193t181 70t182 -70.5t130.5 -193.5t47.5 -270q0 -221 -104 -373t-256 -152t-254.5 151t-102.5 374zM309 197q0 -180 15 -277t44 -132.5t83 -35.5t84 36t44.5 132.5t14.5 276.5q0 178 -15 276.5t-45 137t-83 38.5t-82.5 -38.5t-44.5 -136.5 t-15 -277z" />
<glyph unicode="&#x2081;" horiz-adv-x="718" d="M121 -266l168 35v739h-166v57q162 34 301 164l49 -10v-950l170 -35v-49h-522v49z" />
<glyph unicode="&#x2082;" horiz-adv-x="831" d="M57 -238q252 236 356.5 383.5t104.5 266.5q0 86 -44.5 137t-117.5 51q-63 0 -123.5 -43t-97.5 -113l-45 29q44 119 133.5 187.5t200.5 68.5q126 0 210.5 -83.5t84.5 -207.5q0 -123 -101.5 -252.5t-351.5 -324.5h338q51 51 98 135l50 -10l-107 -346h-39l-24 45h-512z" />
<glyph unicode="&#x2083;" horiz-adv-x="794" d="M68 -143q0 43 24.5 70.5t63.5 27.5q33 0 54 -20.5t32.5 -49.5t23.5 -58.5t37 -50t64 -20.5q70 0 112.5 52t42.5 139q0 106 -57 168.5t-150 62.5q-37 0 -71 -6l-19 59q107 41 169.5 110.5t62.5 145.5q0 53 -31.5 85t-83.5 32q-58 0 -110.5 -35t-81.5 -92l-44 19 q23 104 106.5 168.5t195.5 64.5q105 0 171 -58t66 -151q0 -77 -51.5 -134.5t-130.5 -78.5v-8q111 -11 177.5 -84.5t66.5 -187.5q0 -148 -108 -252.5t-263 -104.5q-112 0 -190 54.5t-78 132.5z" />
<glyph unicode="&#x2084;" horiz-adv-x="831" d="M29 20l512 709l82 -12v-643h125v-131h-125v-179l118 -30v-49h-460v49l159 30v179h-391zM162 82l4 -8h274v366h-8z" />
<glyph unicode="&#x2085;" horiz-adv-x="782" d="M59 -156q0 44 24 72.5t62 28.5q33 0 52.5 -19.5t30 -47.5t22 -55.5t37.5 -47t67 -19.5q78 0 131.5 58t53.5 145q0 89 -61 146t-156 57q-77 0 -138 -37l-43 2l76 571h369q1 1 2.5 2t2.5 1.5t2.5 2.5t3 4.5l4.5 7.5t6 11.5t7.5 16t10.5 22.5l41 -23l-56 -229h-336l-26 -174 q37 14 110 14q153 0 246.5 -85t93.5 -224q0 -161 -110 -268t-273 -107q-110 0 -183 49.5t-73 124.5z" />
<glyph unicode="&#x2086;" horiz-adv-x="843" d="M88 49q0 222 142 406.5t378 269.5l25 -53q-114 -60 -212.5 -188.5t-111.5 -235.5q25 32 72 50.5t104 18.5q129 0 212 -90t83 -227q0 -146 -97.5 -238t-252.5 -92q-160 0 -251 101t-91 278zM291 2q0 -116 40 -183t109 -67q65 0 103.5 60.5t38.5 164.5q0 110 -41.5 175 t-110.5 65q-82 0 -125 -74q-14 -55 -14 -141z" />
<glyph unicode="&#x2087;" horiz-adv-x="733" d="M45 428l111 332l45 -10q0 -37 6 -52h477l18 -36q-131 -290 -183.5 -424.5t-166.5 -475.5q-31 -92 -98 -92q-39 0 -62.5 22.5t-23.5 59.5q0 52 53 152l326 610h-379q-36 -33 -80 -108z" />
<glyph unicode="&#x2088;" horiz-adv-x="864" d="M90 -53q0 156 201 243q-164 107 -164 267q0 124 85 198t222 74q130 0 211.5 -64t81.5 -167q0 -71 -44.5 -128.5t-129.5 -93.5q116 -65 168.5 -134t52.5 -158q0 -136 -100 -225t-252 -89q-151 0 -241.5 77.5t-90.5 199.5zM258 -39q0 -100 48 -154.5t134 -54.5 q78 0 125 42.5t47 113.5q0 72 -61 130.5t-195 113.5q-98 -54 -98 -191zM283 518q0 -60 46 -107.5t150 -97.5q99 79 99 185q0 70 -41.5 110.5t-110.5 40.5q-66 0 -104.5 -35t-38.5 -96z" />
<glyph unicode="&#x2089;" horiz-adv-x="841" d="M63 395q0 148 97 239t252 91q159 0 250.5 -101t91.5 -276q0 -223 -142.5 -408t-378.5 -270l-24 56q114 61 212.5 193.5t113.5 242.5q-26 -32 -74 -51t-105 -19q-127 0 -210 86t-83 217zM262 418q0 -103 41 -163t111 -60q80 0 123 71q16 56 16 129q0 115 -41 182.5 t-109 67.5q-66 0 -103.5 -61t-37.5 -166z" />
<glyph unicode="&#x20ac;" horiz-adv-x="1308" d="M72 614l20 91h164q-2 25 -2 77q0 53 2 80h-143l20 90h131q39 288 192 466.5t369 178.5q150 0 255.5 -77.5t105.5 -186.5q0 -57 -30 -90t-81 -33q-100 0 -125 140q-17 87 -55.5 125t-106.5 38q-127 0 -196 -139.5t-84 -421.5h508l-21 -90h-491v-157h471l-21 -91h-446 q27 -551 270 -551q123 0 162 185q30 139 133 139q54 0 83.5 -33t29.5 -94q0 -118 -107 -199t-264 -81q-214 0 -364 174t-187 460h-192z" />
<glyph unicode="&#x2122;" horiz-adv-x="1722" d="M147 1376l31 201h543l31 -201h-52l-75 148h-101v-523l90 -16v-39h-327v39l90 16v523h-103l-75 -148h-52zM776 946v39l74 16v521l-74 16v39h234l159 -485h9l182 485h213v-39l-74 -16v-521l74 -16v-39h-275v39l74 16v431l-194 -494h-84l-183 528h-8v-465l72 -16v-39h-199z " />
<glyph unicode="&#x2153;" horiz-adv-x="1689" d="M98 655v45l152 31v666h-150v51q145 30 271 147l45 -8v-856l151 -31v-45h-469zM276 0l961 1577h143l-962 -1577h-142zM1016 147q0 39 21.5 64t56.5 25q30 0 49 -18.5t29 -45t21 -52.5t33.5 -44.5t57.5 -18.5q62 0 100.5 46.5t38.5 123.5q0 96 -51 152.5t-135 56.5 q-33 0 -63 -6l-17 53q96 38 152.5 101t56.5 131q0 47 -29 75.5t-75 28.5q-53 0 -99.5 -31t-72.5 -83l-39 18q20 94 94.5 151.5t175.5 57.5q94 0 153.5 -52.5t59.5 -136.5q0 -69 -46.5 -120.5t-117.5 -69.5v-8q100 -9 159.5 -76t59.5 -170q0 -132 -97.5 -225.5t-236.5 -93.5 q-100 0 -169.5 48.5t-69.5 118.5z" />
<glyph unicode="&#x2154;" horiz-adv-x="1761" d="M84 727q226 211 320 344.5t94 239.5q0 77 -40 123.5t-106 46.5q-56 0 -110 -39t-88 -103l-41 27q40 107 120.5 168t180.5 61q114 0 190 -74.5t76 -185.5q0 -110 -92 -228t-316 -292h303q46 43 89 121l45 -8l-97 -312h-34l-23 39h-461zM350 0l961 1577h143l-962 -1577 h-142zM1090 147q0 39 21 64t56 25q30 0 49 -18.5t29.5 -45t21.5 -52.5t33.5 -44.5t57.5 -18.5q62 0 100.5 46.5t38.5 123.5q0 96 -51 152.5t-135 56.5q-34 0 -64 -6l-16 53q96 38 152.5 101t56.5 131q0 47 -29.5 75.5t-75.5 28.5q-53 0 -99.5 -31t-72.5 -83l-39 18 q20 94 95 151.5t176 57.5q94 0 153.5 -52.5t59.5 -136.5q0 -69 -46.5 -120.5t-117.5 -69.5v-8q100 -9 159.5 -76t59.5 -170q0 -132 -97.5 -225.5t-236.5 -93.5q-100 0 -169.5 48.5t-69.5 118.5z" />
<glyph unicode="&#x215b;" horiz-adv-x="1716" d="M98 655v45l152 31v666h-150v51q145 30 271 147l45 -8v-856l151 -31v-45h-469zM276 0l961 1577h143l-962 -1577h-142zM1010 227q0 141 180 219q-148 99 -148 240q0 112 76.5 179t200.5 67q117 0 190.5 -58t73.5 -151q0 -129 -158 -199q105 -59 152 -121t47 -141 q0 -124 -89.5 -203t-227.5 -79q-136 0 -216.5 69t-80.5 178zM1159 242q0 -90 44 -139.5t122 -49.5q69 0 111.5 38.5t42.5 101.5q0 66 -54.5 118t-175.5 101q-90 -49 -90 -170zM1182 741q0 -54 41.5 -97t136.5 -87q88 76 88 166q0 64 -37 100.5t-100 36.5q-59 0 -94 -32 t-35 -87z" />
<glyph unicode="&#x215c;" horiz-adv-x="1744" d="M84 813q0 39 21.5 63.5t56.5 24.5q30 0 49 -18.5t29 -44.5t21 -52t33.5 -44.5t57.5 -18.5q62 0 101 46.5t39 123.5q0 96 -51.5 152.5t-135.5 56.5q-33 0 -63 -6l-17 53q96 38 152.5 100.5t56.5 130.5q0 47 -29 76t-75 29q-52 0 -99 -31t-73 -84l-39 19q20 94 94.5 151 t175.5 57q94 0 153.5 -52t59.5 -136q0 -69 -46.5 -120.5t-117.5 -69.5v-9q100 -9 159.5 -75.5t59.5 -169.5q0 -132 -97 -226t-236 -94q-100 0 -170 49t-70 119zM303 0l961 1577h143l-963 -1577h-141zM1038 227q0 141 181 219q-148 99 -148 240q0 112 76.5 179t200.5 67 q117 0 190.5 -58t73.5 -151q0 -129 -158 -199q105 -59 152 -121t47 -141q0 -124 -89.5 -203t-228.5 -79q-136 0 -216.5 69t-80.5 178zM1188 242q0 -90 44 -139.5t122 -49.5q69 0 111 38.5t42 101.5q0 66 -54 118t-175 101q-90 -49 -90 -170zM1210 741q0 -54 42 -97t137 -87 q88 76 88 166q0 64 -37.5 100.5t-100.5 36.5q-59 0 -94 -32t-35 -87z" />
<glyph unicode="&#x215d;" horiz-adv-x="1759" d="M76 801q0 40 21 65t55 25q30 0 48 -17.5t27 -42t19.5 -49t33.5 -42t60 -17.5q71 0 118.5 51.5t47.5 130.5q0 80 -54.5 131t-140.5 51q-66 0 -125 -32h-36l67 516h332l35 59l37 -20l-50 -205h-303l-24 -158q50 17 100 17q136 0 220.5 -78.5t84.5 -204.5q0 -144 -98.5 -240 t-245.5 -96q-100 0 -164.5 44t-64.5 112zM315 0l961 1577h143l-962 -1577h-142zM1051 227q0 141 180 219q-148 99 -148 240q0 112 76.5 179t200.5 67q117 0 190.5 -58t73.5 -151q0 -129 -158 -199q105 -59 152 -121t47 -141q0 -124 -89.5 -203t-227.5 -79q-136 0 -216.5 69 t-80.5 178zM1200 242q0 -90 44 -139.5t122 -49.5q69 0 111.5 38.5t42.5 101.5q0 66 -54.5 118t-175.5 101q-90 -49 -90 -170zM1223 741q0 -54 41.5 -97t136.5 -87q88 76 88 166q0 64 -37 100.5t-100 36.5q-59 0 -94 -32t-35 -87z" />
<glyph unicode="&#x215e;" horiz-adv-x="1705" d="M74 1327l100 297l39 -8l6 -47h430l17 -33q-120 -264 -167.5 -385t-148.5 -424q-28 -82 -88 -82q-36 0 -57 20t-21 54q0 49 47 135l295 549h-342q-34 -29 -71 -96zM213 0l961 1577h143l-963 -1577h-141zM1010 227q0 141 180 219q-148 99 -148 240q0 112 76.5 179t200.5 67 q117 0 190.5 -58t73.5 -151q0 -129 -158 -199q105 -59 152 -121t47 -141q0 -124 -89.5 -203t-227.5 -79q-136 0 -216.5 69t-80.5 178zM1159 242q0 -90 44 -139.5t122 -49.5q69 0 111.5 38.5t42.5 101.5q0 66 -54.5 118t-175.5 101q-90 -49 -90 -170zM1182 741 q0 -54 41.5 -97t136.5 -87q88 76 88 166q0 64 -37 100.5t-100 36.5q-59 0 -94 -32t-35 -87z" />
<glyph unicode="&#x25fc;" horiz-adv-x="1085" d="M0 0v1085h1085v-1085h-1085z" />
<glyph unicode="&#xfb06;" horiz-adv-x="1568" d="M92 207q0 50 27.5 78t75.5 28q45 0 66 -27t46 -102q24 -72 53.5 -105.5t96.5 -33.5q83 0 134.5 51t51.5 133q0 58 -28.5 102t-73.5 73t-100 55.5t-110 56t-100 65.5t-73.5 94.5t-28.5 133.5q0 140 92.5 220.5t253.5 80.5q11 0 27 -2v8q-75 27 -125.5 102.5t-50.5 165.5 q0 143 134.5 239.5t338.5 96.5q221 0 338.5 -121.5t117.5 -351.5q0 -77 -12 -162h293l-16 -71h-277v-725q0 -122 24.5 -167.5t88.5 -45.5q92 0 164 84l34 -27q-50 -74 -123 -113.5t-161 -39.5q-113 0 -167 71t-54 219v744h-134l-4 33q170 41 170 274q0 159 -78 243.5 t-225 84.5q-148 0 -233.5 -81.5t-85.5 -221.5q0 -172 151 -252q94 -25 150.5 -78t56.5 -121q0 -47 -27.5 -74.5t-70.5 -27.5q-27 0 -47 10.5t-33.5 33t-20.5 39.5t-16 46q-22 69 -50.5 95.5t-84.5 26.5q-79 0 -127.5 -44.5t-48.5 -120.5q0 -55 28 -97t73 -69t99.5 -51 t109 -52.5t99.5 -65t73 -96t28 -137.5q0 -152 -99 -241.5t-266 -89.5q-147 0 -245.5 65t-98.5 162z" />
<glyph d="M0 614l20 91h164q-2 25 -2 77q0 53 2 80h-143l20 90h132q39 288 192 466.5t369 178.5q150 0 255 -77.5t105 -186.5q0 -57 -29.5 -90t-80.5 -33q-100 0 -125 140q-17 87 -55.5 125t-106.5 38q-251 0 -281 -561h508l-20 -90h-492v-157h471l-20 -91h-447q27 -551 271 -551 q122 0 161 185q30 139 133 139q54 0 83.5 -33t29.5 -94q0 -118 -107 -199t-264 -81q-214 0 -363.5 174t-186.5 460h-193z" />
<glyph horiz-adv-x="614" d="M236 -348v2025h143v-2025h-143z" />
<glyph horiz-adv-x="1832" d="M94 528q0 255 153 416.5t394 161.5q42 0 66 -4v8q-57 37 -87 99t-30 134q0 164 135 270.5t344 106.5q217 0 334 -123t117 -350q0 -69 -13 -162h293l-16 -71h-277v-725q0 -122 24.5 -167.5t88.5 -45.5q92 0 164 84l35 -27q-50 -74 -123.5 -113.5t-161.5 -39.5 q-113 0 -167 71t-54 219v744h-133l-4 33q170 41 170 274q0 157 -77.5 242.5t-219.5 85.5q-150 0 -238 -90.5t-88 -245.5q0 -177 125 -246q139 -76 139 -174q0 -49 -28 -77t-78 -28q-41 0 -61 24t-48 106q-26 74 -53 98t-84 24q-155 0 -243.5 -122.5t-88.5 -337.5 q0 -217 90.5 -334t259.5 -117q97 0 177.5 39t134.5 111l22 30l39 -20l-10 -27q-52 -135 -162.5 -208.5t-259.5 -73.5q-220 0 -360 153t-140 395z" />
<glyph d="M147 528q0 233 130 390.5t341 183.5v270h87v-266q160 -3 268 -73.5t108 -168.5q0 -53 -25 -84.5t-69 -31.5q-53 0 -81.5 31t-39.5 98q-12 77 -51.5 115t-109.5 46v-909q202 0 313 150l22 30l39 -20l-10 -27q-47 -122 -141.5 -194t-222.5 -84v-250h-87v248 q-210 11 -340.5 161.5t-130.5 384.5zM356 569q0 -179 68 -290t194 -140v897q-109 -23 -185.5 -151t-76.5 -316z" />
<glyph horiz-adv-x="614" d="M166 119q0 62 38.5 102.5t100.5 40.5q65 0 104.5 -40.5t39.5 -102.5q0 -59 -40 -99t-104 -40q-62 0 -100.5 40.5t-38.5 98.5zM166 821q0 62 38.5 103t100.5 41q65 0 104.5 -40.5t39.5 -103.5q0 -59 -40 -99t-104 -40q-62 0 -100.5 40.5t-38.5 98.5z" />
<glyph horiz-adv-x="614" d="M166 125q0 59 39 98t98 39q64 0 105 -51t41 -123q0 -241 -216 -397l-40 59q56 42 91 91t35 85q0 26 -16 45t-38.5 31t-44.5 26t-38 38t-16 59z" />
<glyph horiz-adv-x="614" d="M59 1450q0 104 72 177t176 73q103 0 175.5 -73.5t72.5 -176.5q0 -104 -72 -176t-176 -72t-176 72t-72 176zM143 1450q0 -70 46.5 -117t117.5 -47q73 0 118.5 46.5t45.5 117.5q0 74 -45.5 121t-118.5 47q-71 0 -117.5 -47.5t-46.5 -120.5z" />
<glyph d="M195 645v100h839v-100h-839zM457 348q0 62 38.5 103t100.5 41q65 0 104 -40.5t39 -103.5q0 -59 -39.5 -99t-103.5 -40q-62 0 -100.5 40.5t-38.5 98.5zM457 1051q0 62 38.5 102.5t100.5 40.5q65 0 104 -40t39 -103q0 -59 -39.5 -99.5t-103.5 -40.5q-62 0 -100.5 40.5 t-38.5 99.5z" />
<glyph d="M170 248q0 56 30 88.5t81 32.5q30 0 52 -11.5t36 -34.5t21.5 -42.5t15.5 -51.5q11 -38 19.5 -58t28 -46.5t53 -40.5t83.5 -18v614q-159 87 -222 136q-160 124 -178 296q-2 23 -2 47q0 172 110.5 291.5t291.5 142.5v226h86v-222q151 -6 255.5 -82.5t104.5 -183.5 q0 -56 -29.5 -88.5t-80.5 -32.5q-31 0 -53 11.5t-36 34.5t-21.5 43t-14.5 51q-16 63 -45 102t-80 55v-583q40 -22 56.5 -31.5t54 -32t55 -35.5t49 -36.5t47.5 -42t39 -45t35 -52.5t24.5 -57.5t17.5 -66.5t5 -74q0 -177 -107 -301.5t-276 -157.5v-201h-86v191 q-180 0 -300 77.5t-120 188.5zM403 1274q0 -65 26 -121.5t64.5 -95.5t96.5 -78v530q-85 -12 -136 -74.5t-51 -160.5zM676 72q90 20 142 87.5t52 166.5q0 96 -50.5 166t-143.5 133v-553z" />
<glyph horiz-adv-x="806" d="M96 227q0 141 180 219q-147 98 -147 240q0 112 76.5 179t200.5 67q117 0 190.5 -58t73.5 -151q0 -129 -158 -199q105 -59 152 -121t47 -141q0 -124 -89.5 -203t-228.5 -79q-136 0 -216.5 69t-80.5 178zM246 242q0 -90 44 -139.5t122 -49.5q69 0 111 38.5t42 101.5 q0 66 -54 118t-175 101q-90 -49 -90 -170zM268 741q0 -54 41.5 -97t136.5 -87q89 77 89 166q0 64 -37.5 100.5t-100.5 36.5q-59 0 -94 -32t-35 -87z" />
<glyph horiz-adv-x="806" d="M96 891q0 141 180 219q-147 98 -147 240q0 112 76.5 178.5t200.5 66.5q117 0 190.5 -58t73.5 -151q0 -128 -158 -198q105 -59 152 -121t47 -141q0 -124 -90 -203.5t-228 -79.5q-136 0 -216.5 69.5t-80.5 178.5zM246 905q0 -90 43.5 -139t122.5 -49q69 0 111 38t42 101 q0 66 -54 118t-175 101q-90 -49 -90 -170zM268 1405q0 -54 41.5 -97t136.5 -87q89 77 89 165q0 64 -37.5 101t-100.5 37q-59 0 -94 -32t-35 -87z" />
<glyph horiz-adv-x="1083" d="M113 377q0 121 75 215.5t232 171.5q-141 95 -204.5 193.5t-63.5 220.5q0 161 115.5 267.5t289.5 106.5q165 0 272 -93.5t107 -239.5q0 -104 -58 -194t-167 -155q133 -106 194.5 -213t61.5 -233q0 -190 -126.5 -317t-314.5 -127q-177 0 -295 114t-118 283zM317 375 q0 -140 65 -221.5t177 -81.5q103 0 162 69.5t59 192.5q0 116 -66 208.5t-208 176.5q-189 -115 -189 -344zM344 1243q0 -100 64 -178.5t206 -153.5q142 136 142 306q0 111 -57 177t-154 66q-91 0 -146 -59.5t-55 -157.5z" />
<glyph d="M115 399q0 129 78 231t239 185q-139 91 -203.5 185t-64.5 206q0 170 126 280.5t320 110.5q183 0 301.5 -97.5t118.5 -246.5q0 -109 -67.5 -198t-198.5 -154q175 -106 256.5 -217t81.5 -244q0 -195 -146.5 -327.5t-363.5 -132.5q-206 0 -341.5 119t-135.5 300zM319 401 q0 -153 81.5 -241t222.5 -88q134 0 213 75.5t79 202.5q0 129 -93 227.5t-304 192.5q-97 -60 -148 -155t-51 -214zM356 1276q0 -101 74.5 -180.5t237.5 -153.5q182 133 182 311q0 114 -69 183t-183 69q-109 0 -175.5 -62.5t-66.5 -166.5z" />
<glyph d="M195 492v90h839v-90h-839zM195 821v90h839v-90h-839z" />
<glyph horiz-adv-x="731" d="M66 135q0 40 20.5 65t54.5 25q30 0 48 -17.5t27.5 -42t19.5 -49t33.5 -42t60.5 -17.5q71 0 118.5 52t47.5 131q0 80 -54.5 131t-140.5 51q-64 0 -125 -33h-37l68 516h332l34 60l37 -21l-49 -205h-303l-25 -157q47 16 101 16q136 0 220.5 -78.5t84.5 -204.5 q0 -144 -98.5 -239.5t-245.5 -95.5q-100 0 -164.5 43.5t-64.5 111.5z" />
<glyph horiz-adv-x="733" d="M68 801q0 40 20.5 65t54.5 25q30 0 48 -17.5t27.5 -42t19.5 -49t33.5 -42t60.5 -17.5q71 0 118.5 51.5t47.5 130.5q0 80 -54.5 131t-140.5 51q-66 0 -125 -32h-37l68 516h332l34 59l37 -20l-49 -205h-303l-24 -158q50 17 100 17q136 0 220.5 -78.5t84.5 -204.5 q0 -144 -98.5 -240t-245.5 -96q-100 0 -164.5 44t-64.5 112z" />
<glyph horiz-adv-x="870" d="M41 -307q0 28 18.5 45.5t49.5 17.5q24 0 50.5 -15t47.5 -33t56.5 -33t76.5 -15q106 0 170.5 82.5t64.5 218.5q0 182 -103 297t-304 158l113 649h391l53 82l43 -14l-76 -252h-356l-43 -256q485 -142 485 -547q0 -223 -137 -366.5t-352 -143.5q-106 0 -177 35.5t-71 89.5z " />
<glyph d="M156 238q0 57 28.5 87.5t79.5 30.5q48 0 77.5 -29.5t45.5 -71t34 -83t58 -71t103 -29.5q135 0 228 113.5t93 277.5q0 172 -103.5 281.5t-267.5 109.5q-125 0 -221 -80l-30 4l106 772h576q25 28 53 82l43 -14l-76 -252h-526l-51 -354q85 32 178 32q227 0 369.5 -138.5 t142.5 -358.5q0 -157 -75.5 -287.5t-206 -205t-286.5 -74.5q-160 0 -266 74t-106 184z" />
<glyph horiz-adv-x="770" d="M33 303l461 637l73 -10v-580h111v-117h-111v-159l107 -29v-45h-416v45l143 29v159h-350zM156 358l4 -8h241v336h-8z" />
<glyph horiz-adv-x="770" d="M33 958l461 637l73 -10v-579h111v-117h-111v-160l107 -29v-45h-416v45l143 29v160h-350zM156 1014l4 -8h241v335h-8z" />
<glyph horiz-adv-x="1138" d="M8 55l785 1051l53 -21v-880h231v-185h-231v-391h-207v391h-614zM240 213l2 -8h397v528h-8z" />
<glyph d="M82 471l825 1126l54 -20v-985h190v-156h-190v-350l182 -39v-47h-635v47l246 39v350h-656zM281 600l2 -8h471v649h-9z" />
<glyph d="M199 248v123l690 319v8l-690 316v135l837 -399v-105z" />
<glyph d="M193 635v104l837 400v-125l-690 -316v-8l690 -319v-133z" />
<glyph d="M250 408l289 288l-287 287l76 76l286 -287l287 287l80 -80l-287 -287l285 -284l-76 -76l-285 284l-288 -288z" />
<glyph horiz-adv-x="782" d="M68 631q0 133 86.5 215t226.5 82q142 0 224.5 -90.5t82.5 -247.5q0 -201 -127.5 -368t-339.5 -242l-22 49q102 56 191 175t102 218q-23 -29 -66 -46.5t-94 -17.5q-115 0 -189.5 77.5t-74.5 195.5zM246 651q0 -93 36.5 -146.5t100.5 -53.5q71 0 111 65q14 54 14 115 q0 104 -36.5 164.5t-98.5 60.5q-58 0 -92.5 -55.5t-34.5 -149.5z" />
<glyph horiz-adv-x="782" d="M68 1296q0 133 86.5 215t226.5 82q142 0 224.5 -90.5t82.5 -247.5q0 -201 -127.5 -368t-339.5 -242l-22 49q102 56 191 175t102 218q-23 -29 -66 -46t-94 -17q-115 0 -189.5 77.5t-74.5 194.5zM246 1317q0 -93 36.5 -147t100.5 -54q32 0 62 17.5t49 48.5q14 54 14 114 q0 104 -36.5 165t-98.5 61q-58 0 -92.5 -55.5t-34.5 -149.5z" />
<glyph horiz-adv-x="1062" d="M78 616q0 216 126 353t324 137q209 0 328 -150t119 -413q0 -319 -213.5 -573t-579.5 -373l-26 53q253 118 388.5 270.5t170.5 358.5l-8 4q-35 -49 -103 -78t-147 -29q-165 0 -272 124t-107 316zM322 653q0 -164 59.5 -262t157.5 -98q111 0 172 110q24 101 24 220 q0 178 -57.5 284.5t-155.5 106.5q-92 0 -146 -97.5t-54 -263.5z" />
<glyph d="M86 1087q0 223 144.5 363.5t373.5 140.5q235 0 368.5 -153t133.5 -422q0 -342 -210.5 -624.5t-561.5 -411.5l-17 51q183 97 339.5 306t181.5 390q-44 -47 -129 -76.5t-179 -29.5q-197 0 -320.5 129.5t-123.5 336.5zM330 1122q0 -178 75.5 -281.5t204.5 -103.5 q70 0 132.5 30t99.5 81q24 105 24 229q0 195 -74 308.5t-200 113.5q-120 0 -191 -102.5t-71 -274.5z" />
<glyph d="M2 537l29 114h286l50 310h-287l24 114h281l55 350h119l-55 -350h305l55 350h117l-55 -350h293l-25 -114h-287l-49 -310h287l-29 -114h-276l-54 -349h-116l53 349h-305l-53 -349h-119l53 349h-297zM436 651h305l50 310h-306z" />
<glyph horiz-adv-x="595" d="M76 0v45l151 31v665h-149v52q143 29 270 147l45 -8v-856l152 -31v-45h-469z" />
<glyph horiz-adv-x="604" d="M84 655v45l152 31v666h-150v51q143 29 270 147l45 -8v-856l152 -31v-45h-469z" />
<glyph horiz-adv-x="886" d="M92 0v45l311 41v731h-303v43q246 42 475 246l43 -16v-1004l244 -41v-45h-770z" />
<glyph d="M279 0v45l270 41v1202h-262v43q230 73 434 266l43 -16v-1495l264 -41v-45h-749z" />
<glyph d="M102 1135q0 202 128 322t348 120h534v-51l-160 -35v-1712h-94v1716h-123v-1716h-94v917h-115q-126 0 -224 60.5t-149 159.5t-51 219z" />
<glyph horiz-adv-x="2150" d="M291 1155q0 186 93 313t228 127t229.5 -128t94.5 -312q0 -180 -94 -305t-230 -125t-228.5 124t-92.5 306zM485 1157q0 -146 13 -223.5t39.5 -106t74.5 -28.5q49 0 76 29t40 106.5t13 222.5t-13.5 225t-40.5 111t-75 31t-74.5 -31t-39.5 -110.5t-13 -225.5zM496 0 l960 1577h143l-962 -1577h-141zM1153 410q0 186 93.5 313t228.5 127t229 -128t94 -312q0 -180 -93.5 -305t-229.5 -125t-229 124t-93 306zM1348 412q0 -146 13 -224t39.5 -106.5t74.5 -28.5q49 0 76 29t40 107t13 223t-13.5 225t-40.5 110.5t-75 30.5t-74.5 -31 t-39.5 -110.5t-13 -224.5z" />
<glyph horiz-adv-x="614" d="M166 119q0 62 38.5 102.5t100.5 40.5q65 0 104.5 -40.5t39.5 -102.5q0 -59 -40 -99t-104 -40q-62 0 -100.5 40.5t-38.5 98.5z" />
<glyph horiz-adv-x="614" d="M166 588q0 62 38.5 102.5t100.5 40.5q65 0 104.5 -40.5t39.5 -102.5q0 -59 -40 -99t-104 -40q-62 0 -100.5 40.5t-38.5 98.5z" />
<glyph d="M195 645v100h368v369h105v-369h366v-100h-366v-371h-105v371h-368z" />
<glyph d="M195 217v100h839v-100h-839zM195 864v101h368v368h105v-368h366v-101h-366v-370h-105v370h-368z" />
<glyph horiz-adv-x="614" d="M43 1577q0 57 29 90t80 33t79.5 -32t28.5 -83q0 -40 -17.5 -126.5t-37.5 -202t-23 -222.5h-61q-3 106 -22.5 221t-37.5 199.5t-18 122.5zM354 1577q0 57 29 90t80 33t79.5 -32t28.5 -83q0 -39 -36.5 -225.5t-40.5 -325.5h-62q-3 106 -22.5 221t-37.5 199.5t-18 122.5z " />
<glyph horiz-adv-x="614" d="M199 1577q0 57 28.5 90t79.5 33t80 -32t29 -83q0 -40 -17.5 -126.5t-37.5 -202t-23 -222.5h-62q-3 106 -22 221t-37 199.5t-18 122.5z" />
<glyph d="M197 -96q0 50 27.5 80t74.5 30q41 0 63.5 -28t49.5 -101q29 -75 68.5 -109t133.5 -34q121 0 190.5 60.5t69.5 166.5q0 60 -23 108.5t-62.5 82t-90 62t-106.5 53t-112.5 49.5t-107 56.5t-90 69.5t-62.5 93t-23 123q0 118 67.5 204.5t188.5 126.5q-116 61 -181 141t-65 205 q0 166 118.5 261.5t325.5 95.5q166 0 272.5 -58.5t106.5 -150.5q0 -48 -28.5 -78.5t-73.5 -30.5q-42 0 -64 28.5t-51 100.5q-28 70 -66.5 96.5t-115.5 26.5q-125 0 -193.5 -56t-68.5 -157q0 -63 29 -113t76 -82t107.5 -63t124 -55.5t124 -60t107.5 -75.5t76 -103.5 t29 -143.5q0 -113 -54 -201.5t-150 -138.5q91 -57 142.5 -134.5t51.5 -193.5q0 -177 -120 -279t-330 -102q-169 0 -277 64t-108 164zM358 739q0 -43 18 -80t43 -61.5t69.5 -50t80.5 -40.5t94.5 -39t92.5 -40q60 33 94.5 89t34.5 124q0 34 -11 65t-25.5 54t-45 48.5 t-52.5 40.5t-67.5 38t-69.5 34t-77 35q-80 -22 -129.5 -81.5t-49.5 -135.5z" />
<glyph horiz-adv-x="614" d="M164 125q0 58 40 97.5t99 39.5q66 0 107 -55.5t41 -145.5q0 -212 -218 -370l-40 59q56 42 91 91t35 85q0 22 -16 39.5t-38.5 30.5t-45.5 28t-39 40.5t-16 60.5zM166 821q0 62 38.5 103t100.5 41q65 0 104.5 -40.5t39.5 -103.5q0 -59 -40 -99t-104 -40q-62 0 -100.5 40.5 t-38.5 98.5z" />
<glyph horiz-adv-x="690" d="M51 662l101 296l38 -8l7 -47h430l16 -33q-118 -260 -165.5 -381.5t-149.5 -427.5q-28 -81 -88 -81q-37 0 -57.5 19.5t-20.5 53.5q0 49 47 135l295 549h-342q-36 -31 -72 -96z" />
<glyph horiz-adv-x="679" d="M51 1327l101 297l38 -8l7 -47h430l16 -33q-118 -260 -165.5 -381.5t-149.5 -427.5q-28 -82 -88 -82q-36 0 -57 20t-21 54q0 49 47 135l295 549h-342q-36 -31 -72 -96z" />
<glyph horiz-adv-x="1005" d="M35 748l153 389l48 -15l8 -57h739l16 -25q-171 -315 -242 -460.5t-136.5 -313.5t-198.5 -551q-42 -118 -131 -118q-46 0 -72 27.5t-26 78.5q0 87 81 229l541 949h-606l-131 -156z" />
<glyph d="M172 1233l154 389l47 -14q0 -37 8 -58h719l16 -24q-184 -427 -262 -640t-264 -788q-38 -118 -131 -118q-46 0 -72.5 27.5t-26.5 76.5q0 38 19.5 90t62.5 141l506 1051h-602q-66 -55 -131 -156z" />
<glyph horiz-adv-x="788" d="M94 319q0 200 127.5 367t339.5 242l23 -47q-102 -54 -190.5 -169.5t-100.5 -211.5q22 28 64.5 44.5t93.5 16.5q116 0 191 -80.5t75 -204.5q0 -132 -88 -214t-228 -82q-143 0 -225 90.5t-82 248.5zM276 279q0 -104 36.5 -165t99.5 -61q57 0 92 55t35 148q0 99 -37.5 157 t-100.5 58q-72 0 -112 -65q-13 -57 -13 -127z" />
<glyph horiz-adv-x="786" d="M94 983q0 200 127.5 366.5t339.5 241.5l23 -47q-102 -54 -190.5 -169.5t-100.5 -211.5q22 28 64.5 45t93.5 17q116 0 191 -80.5t75 -204.5q0 -132 -88 -214.5t-228 -82.5q-143 0 -225 91t-82 249zM276 942q0 -104 36.5 -164.5t99.5 -60.5q57 0 92 55t35 148 q0 99 -37.5 157t-100.5 58q-72 0 -112 -66q-13 -57 -13 -127z" />
<glyph horiz-adv-x="1087" d="M106 543q0 339 213.5 609t579.5 398l27 -45q-251 -135 -388 -313t-171 -406l8 -4q35 49 103 78t147 29q165 0 272 -124t107 -316q0 -207 -126.5 -338t-324.5 -131q-209 0 -328 150t-119 413zM346 442q0 -168 57.5 -269t155.5 -101q92 0 146.5 91.5t54.5 248.5 q0 164 -59.5 262t-157.5 98q-111 0 -172 -110q-25 -105 -25 -220z" />
<glyph d="M133 555q0 342 210.5 624.5t561.5 411.5l17 -51q-183 -97 -339.5 -306t-181.5 -390q44 47 129 76.5t179 29.5q197 0 320.5 -130t123.5 -337q0 -223 -144.5 -363t-373.5 -140q-235 0 -368.5 153t-133.5 422zM373 494q0 -195 74 -308.5t200 -113.5q120 0 191 102.5 t71 274.5q0 178 -75.5 281.5t-204.5 103.5q-70 0 -132.5 -30t-99.5 -81q-24 -105 -24 -229z" />
<glyph horiz-adv-x="614" d="M31 -346l409 2023h142l-412 -2023h-139z" />
<glyph d="M12 125q0 78 63 128t161 50q56 0 126 -18q40 149 76 374h-225v91h244l49 239q61 305 174 451.5t287 146.5q109 0 179.5 -44t70.5 -111q0 -51 -34.5 -85t-84.5 -34q-35 0 -60 18t-38.5 44t-26 52t-31.5 44t-45 18q-24 0 -41 -22.5t-37.5 -94t-41.5 -182.5t-54 -309 l-23 -131h369v-91h-387q-57 -250 -137 -421q129 -60 282 -60q243 0 289 156h72q0 -170 -86 -262t-244 -92q-94 0 -176 34t-197 123q-133 -155 -292 -155q-83 0 -132 38.5t-49 104.5zM115 133q0 -30 19 -47.5t52 -17.5q46 0 87.5 34t64.5 91q-52 24 -102 24q-57 0 -89 -22 t-32 -62z" />
<glyph horiz-adv-x="745" d="M74 147q0 39 21.5 64t56.5 25q30 0 49 -18.5t29 -45t21 -52.5t33.5 -44.5t57.5 -18.5q62 0 100.5 46.5t38.5 123.5q0 96 -51 152.5t-135 56.5q-34 0 -64 -6l-16 53q96 38 152.5 101t56.5 131q0 47 -29.5 75.5t-75.5 28.5q-53 0 -99.5 -31t-72.5 -83l-38 18 q20 94 94.5 151.5t175.5 57.5q94 0 153.5 -52.5t59.5 -136.5q0 -69 -46.5 -120.5t-117.5 -69.5v-8q100 -9 159.5 -76t59.5 -170q0 -132 -97.5 -225.5t-236.5 -93.5q-100 0 -169.5 48.5t-69.5 118.5z" />
<glyph horiz-adv-x="743" d="M76 813q0 39 21.5 63.5t56.5 24.5q30 0 49 -18.5t29 -44.5t21 -52t33.5 -44.5t57.5 -18.5q62 0 100.5 46.5t38.5 123.5q0 96 -51 152.5t-135 56.5q-34 0 -64 -6l-16 53q96 38 152.5 100.5t56.5 130.5q0 47 -29 76t-75 29q-52 0 -99 -31t-73 -84l-39 19q20 94 94.5 151 t175.5 57q94 0 153.5 -52t59.5 -136q0 -69 -46.5 -120.5t-117.5 -69.5v-9q100 -9 159.5 -75.5t59.5 -169.5q0 -132 -97.5 -226t-236.5 -94q-100 0 -169.5 49t-69.5 119z" />
<glyph horiz-adv-x="958" d="M45 -309q0 29 18.5 46t49.5 17q26 0 53.5 -15t49 -33t60 -33t84.5 -15q122 0 208.5 98t86.5 236q0 134 -82.5 228.5t-199.5 94.5q-30 0 -115 -10l-12 55q167 69 256.5 173.5t89.5 230.5q0 89 -42.5 144t-111.5 55q-74 0 -143.5 -57t-104.5 -146l-49 12q28 146 137 240 t250 94q127 0 211 -77t84 -195q0 -104 -70 -199t-192 -158v-8q136 -31 220.5 -141.5t84.5 -255.5q0 -138 -74.5 -254t-204 -184t-284.5 -68q-114 0 -186 35t-72 90z" />
<glyph d="M143 258q0 58 31 91.5t84 33.5q36 0 61.5 -17t40 -44.5t26.5 -60.5t26 -66.5t33 -61t53 -44.5t80 -17q123 0 213 103t90 243q0 148 -102.5 250t-250.5 102q-34 0 -116 -10l-13 55q165 74 255.5 183t90.5 235q0 98 -52.5 159.5t-131.5 61.5q-100 0 -185.5 -66.5 t-133.5 -177.5l-49 13q34 166 159 270t289 104q145 0 238.5 -82.5t93.5 -209.5q0 -104 -67.5 -199t-190.5 -164v-8q162 -14 259 -126t97 -286q0 -148 -72 -273t-196 -197t-271 -72q-161 0 -275 81.5t-114 196.5z" />
<glyph horiz-adv-x="774" d="M63 72q226 211 320 344t94 239q0 77 -39.5 123.5t-105.5 46.5q-57 0 -111 -38.5t-88 -102.5l-41 27q40 107 120.5 168t180.5 61q114 0 190 -74.5t76 -185.5t-92 -228.5t-315 -291.5h303q44 41 88 121l45 -9l-96 -311h-35l-22 39h-461z" />
<glyph horiz-adv-x="782" d="M72 727q225 211 319 344t94 240q0 77 -39.5 123.5t-105.5 46.5q-56 0 -110.5 -39t-88.5 -103l-41 27q40 107 120.5 168t180.5 61q114 0 190.5 -75t76.5 -185t-92 -228t-316 -292h303q44 41 88 121l45 -8l-96 -312h-35l-22 39h-461z" />
<glyph horiz-adv-x="1089" d="M82 47q289 245 411.5 404.5t122.5 291.5q0 92 -50 149.5t-130 57.5q-83 0 -162.5 -65t-126.5 -172l-43 22q53 167 168.5 269t253.5 102q134 0 230 -91t96 -220q0 -122 -113.5 -264.5t-365.5 -340.5l4 -6h446q85 92 156 219l45 -16l-147 -428h-46l-26 41h-705z" />
<glyph d="M47 47q406 391 572.5 632.5t166.5 436.5q0 145 -73.5 235.5t-190.5 90.5q-99 0 -195 -66t-153 -172l-43 23q62 166 194 268t287 102q175 0 292.5 -125.5t117.5 -312.5q0 -201 -167 -427.5t-552 -547.5h588q32 35 81 106t83 134l45 -16l-156 -449h-45l-27 41h-806z" />
<glyph d="M51 -61h1127v-91h-1127v91z" />
<glyph d="M16 1530v47h570v-47q-80 -14 -113 -32.5t-33 -53.5q0 -26 19 -72l223 -543h8l223 545q13 37 13 60q0 40 -38.5 63t-129.5 33v47h454v-47q-69 -13 -104.5 -32.5t-63.5 -61t-67 -133.5l-221 -537h288v-90h-325v-158h325v-90h-325v-342l182 -39v-47h-582v47l185 39v342h-342 v90h342v158h-342v90h303l-275 639q-32 71 -64.5 94t-109.5 31z" />
<glyph horiz-adv-x="843" d="M100 451q0 203 93.5 342t228.5 139t229 -139.5t94 -341.5q0 -198 -93.5 -334.5t-229.5 -136.5t-229 135.5t-93 335.5zM295 453q0 -163 13 -249.5t39.5 -118.5t74.5 -32q49 0 76 32.5t40 119t13 248.5q0 161 -13.5 250t-40.5 123t-75 34t-74.5 -34t-39.5 -122.5 t-13 -250.5z" />
<glyph horiz-adv-x="843" d="M100 1114q0 203 93.5 342t228.5 139t229 -139.5t94 -341.5q0 -198 -93.5 -334.5t-229.5 -136.5t-229 135.5t-93 335.5zM295 1116q0 -162 13 -249t39.5 -118.5t74.5 -31.5q49 0 76 32t40 118.5t13 248.5q0 161 -13.5 250t-40.5 123.5t-75 34.5t-74.5 -34.5t-39.5 -123 t-13 -250.5z" />
<glyph horiz-adv-x="1294" d="M104 543q0 244 154.5 403.5t388.5 159.5t388.5 -159.5t154.5 -403.5t-154.5 -403.5t-388.5 -159.5t-388.5 159.5t-154.5 403.5zM289 545q0 -191 95 -300.5t265 -109.5q168 0 262.5 108.5t94.5 299.5t-94.5 299t-264.5 108q-169 0 -263.5 -107.5t-94.5 -297.5z" />
<glyph d="M86 780q0 226 70 413.5t192.5 295.5t269.5 108t270.5 -108t195 -296t71.5 -413q0 -223 -70.5 -406.5t-194 -288.5t-272.5 -105q-148 0 -270 104.5t-192 288t-70 407.5zM336 782q0 -267 27.5 -422.5t88.5 -226t166 -70.5q157 0 222 163t65 556q0 394 -66 562.5t-221 168.5 q-103 0 -164.5 -73.5t-89.5 -232t-28 -425.5z" />
</font>
</defs>
</svg>
